<svg width="1066" height="789" viewBox="0 0 1066 789" fill="none" xmlns="http://www.w3.org/2000/svg">
<path d="M523.566 436.897L519.362 399.678C519.246 398.645 518.732 397.698 517.929 397.038L506.675 387.776C505.139 386.513 504.765 384.313 505.797 382.613L508.702 377.824C509.352 376.751 510.469 376.046 511.717 375.919L527.448 374.318C528.812 374.179 530.009 373.352 530.622 372.126L532.399 368.567C532.796 367.773 533.446 367.134 534.246 366.749L540.983 363.512C541.29 363.365 541.576 363.179 541.836 362.959L567.043 341.612C567.513 341.213 567.885 340.712 568.129 340.146L578.123 317.014C578.404 316.363 578.853 315.799 579.424 315.379L600.242 300.058C601.046 299.467 602.042 299.197 603.035 299.302L621.73 301.287C623.003 301.422 624.264 300.939 625.122 299.989L632.172 292.177C632.835 291.442 633.202 290.487 633.202 289.497V280.823C633.202 279.596 632.639 278.437 631.675 277.679L625.836 273.087C624.575 272.096 624.029 270.446 624.448 268.898L637.84 219.432C637.896 219.222 637.936 219.009 637.958 218.792L641.096 188.009C641.224 186.761 641.928 185.646 643 184.995L660.826 174.173C661.51 173.757 662.054 173.146 662.387 172.419L665.127 166.437C665.428 165.779 665.902 165.216 666.498 164.806L697.96 143.176C698.627 142.718 699.417 142.472 700.226 142.472H708.854C709.243 142.472 709.631 142.415 710.004 142.303L715.146 140.759C715.828 140.554 716.553 140.536 717.246 140.705L743.784 147.191C744.349 147.329 744.5 148.062 744.034 148.412V148.412C743.915 148.501 743.77 148.55 743.62 148.55H736.515C735.587 148.55 734.688 148.873 733.971 149.463L731.35 151.623C730.176 152.591 729.826 154.241 730.506 155.602V155.602C731.038 156.667 732.107 157.358 733.297 157.406L736.564 157.537C738.452 157.612 740.029 158.998 740.347 160.861L741.513 167.696C741.876 169.822 743.859 171.278 745.997 170.986L747.328 170.805C748.727 170.614 749.922 169.699 750.472 168.399L760.543 144.572C760.659 144.298 760.744 144.013 760.796 143.721L765.021 120.161C765.279 118.721 766.304 117.536 767.692 117.073L785.16 111.245C786.143 110.917 787.215 110.983 788.15 111.43L800.718 117.434C801.256 117.691 801.845 117.824 802.442 117.824H847.854C848.453 117.824 849.044 117.69 849.584 117.431L872.852 106.265C873.209 106.094 873.538 105.871 873.829 105.603L889.919 90.8129L903.623 79.71C903.931 79.4601 904.275 79.2575 904.643 79.1089L922.799 71.7761C923.142 71.6376 923.503 71.5473 923.871 71.5078L931.826 70.6547C932.442 70.5887 933.033 70.3808 933.555 70.0474L956.064 55.6539C956.708 55.2418 957.221 54.6536 957.541 53.959L964.779 38.2626C965.021 37.7374 965.147 37.1659 965.147 36.5876V26.5408C965.147 24.4967 966.688 22.7815 968.72 22.5636L978.363 21.5294C980.521 21.298 981.917 23.7513 980.616 25.4881V25.4881C980.215 26.0222 980.047 26.6949 980.148 27.3546L980.218 27.8057C980.475 29.478 981.913 30.7125 983.605 30.7125H984.215C985.14 30.7125 985.986 30.1896 986.399 29.362V29.362C986.813 28.5343 987.658 28.0114 988.584 28.0114H988.661C989.893 28.0114 990.951 27.1355 991.182 25.9248L991.715 23.1238C991.968 21.7957 991.379 20.4487 990.233 19.7317L989.801 19.4613C989.562 19.3119 989.286 19.2327 989.004 19.2327V19.2327C987.719 19.2327 987.027 17.7229 987.867 16.7496L989.881 14.4161C990.933 13.1968 992.894 13.4788 993.56 14.9452V14.9452C993.731 15.32 994.002 15.6397 994.345 15.8682L996.036 16.9968C997.177 17.7582 998.629 17.8818 999.882 17.3242L1001.57 16.5748C1003.01 15.9325 1003.94 14.5004 1003.94 12.9201V7.08366C1003.94 5.44849 1004.94 3.97796 1006.45 3.37021L1010.56 1.72668C1011.7 1.26815 1013 1.36376 1014.06 1.9858L1015.49 2.81783C1016.1 3.17519 1016.8 3.3635 1017.5 3.3635H1023.47C1024.16 3.3635 1024.83 3.54068 1025.43 3.87794L1034.7 9.09283C1035.1 9.32319 1035.55 9.4797 1036.01 9.55521L1047.88 11.4887C1049.1 11.6879 1050.17 12.4423 1050.76 13.5315L1063.56 37.1627C1064.41 38.7393 1064.11 40.6915 1062.82 41.9396L1044.08 60.1142C1043.64 60.5408 1043.11 60.8607 1042.52 61.049L982.215 80.5205C981.221 80.8416 980.392 81.5389 979.905 82.4634L955.253 129.281C954.684 130.362 953.652 131.124 952.451 131.349L934.524 134.713C933.403 134.924 932.425 135.603 931.836 136.58L919.943 156.316L897.355 192.222C897.122 192.592 896.952 192.998 896.85 193.424L882.835 252.206L873.245 285.637C873.117 286.081 872.914 286.5 872.644 286.874L850.4 317.701C848.691 320.069 850.013 323.41 852.879 323.968L857.405 324.849C858.358 325.035 859.347 324.867 860.185 324.377L874.142 316.229C874.754 315.871 875.45 315.683 876.159 315.683H880.224C881.811 315.683 883.247 316.621 883.886 318.073L885.683 322.162C886.211 323.363 886.009 324.759 885.162 325.761V325.761C883.896 327.259 884.14 329.512 885.698 330.704L887.638 332.19C888.243 332.652 888.982 332.903 889.743 332.903H891.727C892.886 332.903 893.756 331.842 893.529 330.706V330.706C893.263 329.378 894.477 328.229 895.788 328.567L902.425 330.275C903.863 330.645 904.977 331.781 905.32 333.225L915.979 378.096C916.145 378.792 916.494 379.432 916.991 379.947L942.545 406.471C943.198 407.15 943.592 408.037 943.655 408.977L945.247 432.618C945.41 435.029 943.131 436.871 940.807 436.207V436.207C939.416 435.809 937.923 436.311 937.056 437.469L931.412 445" stroke="#484848" stroke-width="2"/>
<path d="M704.773 148.277L704.416 144.526C704.395 144.3 704.253 144.104 704.046 144.011C703.427 143.736 703.623 142.81 704.301 142.81H708.896C709.249 142.81 709.593 142.927 709.874 143.143L711.03 144.033C712.628 145.263 713.06 147.491 712.038 149.229L711.696 149.812C710.942 151.095 709.497 151.807 708.02 151.622C706.288 151.405 704.938 150.015 704.773 148.277Z" fill="#00845B"/>
<path opacity="0.5" d="M540.096 155.303L546.168 149.225C549.52 145.869 554.959 145.869 558.312 149.225V149.225C561.665 152.581 567.104 152.581 570.456 149.225V149.225C573.809 145.869 579.248 145.869 582.601 149.225V149.225C585.953 152.581 591.392 152.581 594.745 149.225L600.817 143.147" stroke="#484848" stroke-width="2"/>
<path opacity="0.5" d="M804.572 37.8031L810.644 31.7255C813.997 28.3698 819.436 28.3698 822.788 31.7255V31.7255C826.141 35.0812 831.58 35.0812 834.933 31.7255V31.7255C838.285 28.3698 843.724 28.3698 847.077 31.7255V31.7255C850.43 35.0812 855.869 35.0812 859.221 31.7255L865.293 25.6479" stroke="#484848" stroke-width="2"/>
<path opacity="0.5" d="M546.168 164.081L552.24 158.004V158.004C555.593 154.648 561.032 154.648 564.384 158.004V158.004C567.737 161.36 573.176 161.36 576.529 158.004V158.004C579.881 154.648 585.32 154.648 588.673 158.004V158.004C592.026 161.36 597.465 161.36 600.817 158.004L606.889 151.926" stroke="#484848" stroke-width="2"/>
<path opacity="0.5" d="M810.644 46.5818L816.716 40.5042C820.069 37.1485 825.508 37.1485 828.86 40.5042V40.5042C832.213 43.8599 837.652 43.8599 841.005 40.5042V40.5042C844.357 37.1485 849.796 37.1485 853.149 40.5042V40.5042C856.502 43.8599 861.941 43.8599 865.293 40.5042L871.366 34.4266" stroke="#484848" stroke-width="2"/>
<path opacity="0.5" d="M556.963 176.236L563.035 170.159C566.388 166.803 571.827 166.803 575.179 170.159V170.159C578.532 173.515 583.971 173.515 587.324 170.159V170.159C590.676 166.803 596.115 166.803 599.468 170.159V170.159C602.821 173.515 608.259 173.515 611.612 170.159L617.684 164.081" stroke="#484848" stroke-width="2"/>
<path opacity="0.5" d="M821.439 58.7369L827.511 52.6594C830.864 49.3037 836.303 49.3037 839.655 52.6594V52.6594C843.008 56.015 848.447 56.015 851.8 52.6594V52.6594C855.152 49.3037 860.591 49.3037 863.944 52.6594V52.6594C867.297 56.015 872.736 56.015 876.088 52.6594L882.161 46.5818" stroke="#484848" stroke-width="2"/>
<path opacity="0.5" d="M788.717 176.574L796.007 169.277C797.57 167.713 800.104 167.713 801.667 169.277L808.957 176.574" stroke="#484848" stroke-width="2"/>
<path opacity="0.5" d="M789.054 163.406L796.345 156.109C797.907 154.545 800.442 154.545 802.004 156.109L809.295 163.406" stroke="#484848" stroke-width="2"/>
<path opacity="0.5" d="M805.921 173.535L813.212 166.238C814.774 164.674 817.309 164.674 818.871 166.238L826.162 173.535" stroke="#484848" stroke-width="2"/>
<path opacity="0.5" d="M852.474 281.581L859.765 274.284C861.327 272.72 863.862 272.72 865.424 274.284L872.715 281.581" stroke="#484848" stroke-width="2"/>
<path opacity="0.5" d="M846.402 293.736L853.693 286.439C855.255 284.875 857.79 284.875 859.352 286.439L866.643 293.736" stroke="#484848" stroke-width="2"/>
<path opacity="0.5" d="M836.282 305.891L843.573 298.594C845.135 297.03 847.67 297.03 849.232 298.594L856.523 305.891" stroke="#484848" stroke-width="2"/>
<path opacity="0.5" d="M827.511 318.046L834.802 310.749C836.364 309.185 838.899 309.185 840.461 310.749L847.752 318.046" stroke="#484848" stroke-width="2"/>
<path opacity="0.5" d="M827.511 330.202L834.802 322.904C836.364 321.341 838.899 321.341 840.461 322.904L847.752 330.202" stroke="#484848" stroke-width="2"/>
<path opacity="0.5" d="M847.752 347.759L855.042 340.462C856.605 338.898 859.139 338.898 860.702 340.462L867.992 347.759" stroke="#484848" stroke-width="2"/>
<path opacity="0.5" d="M867.992 365.316L875.283 358.019C876.845 356.455 879.38 356.455 880.942 358.019L888.233 365.316" stroke="#484848" stroke-width="2"/>
<path opacity="0.5" d="M888.233 382.874L895.523 375.577C897.086 374.013 899.62 374.013 901.183 375.577L908.473 382.874" stroke="#484848" stroke-width="2"/>
<path opacity="0.5" d="M842.354 335.604L849.645 328.307C851.207 326.743 853.742 326.743 855.304 328.307L862.595 335.604" stroke="#484848" stroke-width="2"/>
<path opacity="0.5" d="M860 333.129L867.291 325.832C868.853 324.268 871.388 324.268 872.95 325.832L880.241 333.129" stroke="#484848" stroke-width="2"/>
<path opacity="0.5" d="M862.595 353.161L869.885 345.864C871.448 344.3 873.982 344.3 875.545 345.864L882.835 353.161" stroke="#484848" stroke-width="2"/>
<path opacity="0.5" d="M878 349.129L885.291 341.832C886.853 340.268 889.388 340.268 890.95 341.832L898.241 349.129" stroke="#484848" stroke-width="2"/>
<path opacity="0.5" d="M882.835 370.719L890.126 363.422C891.688 361.858 894.223 361.858 895.785 363.422L903.076 370.719" stroke="#484848" stroke-width="2"/>
<path opacity="0.5" d="M903.076 388.276L910.366 380.979C911.929 379.415 914.463 379.415 916.026 380.979L923.316 388.276" stroke="#484848" stroke-width="2"/>
<path opacity="0.5" d="M806.259 160.367L813.549 153.07C815.112 151.506 817.646 151.506 819.209 153.07L826.499 160.367" stroke="#484848" stroke-width="2"/>
<path opacity="0.5" d="M804.235 146.862L811.525 139.565C813.087 138.001 815.622 138.001 817.184 139.565L824.475 146.862" stroke="#484848" stroke-width="2"/>
<path opacity="0.5" d="M805.921 133.356L813.212 126.059C814.774 124.495 817.309 124.495 818.871 126.059L826.162 133.356" stroke="#484848" stroke-width="2"/>
<path opacity="0.5" d="M823.126 170.497L830.416 163.2C831.979 161.636 834.513 161.636 836.076 163.2L843.366 170.497" stroke="#484848" stroke-width="2"/>
<path opacity="0.5" d="M823.463 157.328L830.754 150.031C832.316 148.468 834.851 148.468 836.413 150.031L843.704 157.328" stroke="#484848" stroke-width="2"/>
<path opacity="0.5" d="M821.439 143.823L828.73 136.526C830.292 134.962 832.827 134.962 834.389 136.526L841.679 143.823" stroke="#484848" stroke-width="2"/>
<path opacity="0.5" d="M823.126 130.317L830.416 123.02C831.979 121.456 834.513 121.456 836.076 123.02L843.366 130.317" stroke="#484848" stroke-width="2"/>
<path d="M704.5 155L318.5 729.5" stroke="#484848" stroke-width="2" stroke-dasharray="4 4"/>
<path d="M695.5 149.5L90 400" stroke="#484848" stroke-width="2" stroke-dasharray="4 4"/>
<g opacity="0.5">
<path d="M687.681 79.8403C687.248 79.8403 686.858 79.9155 686.51 80.0659C686.167 80.2127 685.873 80.4276 685.629 80.7104C685.389 80.9897 685.205 81.3281 685.076 81.7256C684.947 82.123 684.883 82.5706 684.883 83.0684C684.883 83.7272 684.985 84.3001 685.189 84.7871C685.397 85.2705 685.705 85.6447 686.113 85.9097C686.525 86.1746 687.038 86.3071 687.654 86.3071C688.005 86.3071 688.335 86.2785 688.643 86.2212C688.954 86.1603 689.257 86.0851 689.55 85.9956V86.7905C689.264 86.8979 688.963 86.9767 688.648 87.0269C688.333 87.0806 687.959 87.1074 687.525 87.1074C686.727 87.1074 686.059 86.9427 685.522 86.6133C684.988 86.2803 684.587 85.8112 684.319 85.2061C684.054 84.6009 683.921 83.8866 683.921 83.063C683.921 82.4686 684.004 81.9261 684.168 81.4355C684.337 80.9414 684.58 80.5153 684.899 80.1572C685.221 79.7992 685.615 79.5234 686.081 79.3301C686.55 79.1331 687.087 79.0347 687.692 79.0347C688.089 79.0347 688.472 79.0741 688.841 79.1528C689.21 79.2316 689.543 79.3444 689.84 79.4912L689.475 80.2646C689.224 80.1501 688.949 80.0516 688.648 79.9692C688.351 79.8833 688.028 79.8403 687.681 79.8403Z" fill="#484848"/>
<path d="M700.578 87L699.611 84.5078H696.464L695.503 87H694.579L697.651 79.1152H698.473L701.524 87H700.578ZM699.338 83.6968L698.419 81.2207C698.398 81.1562 698.362 81.0506 698.312 80.9038C698.265 80.757 698.217 80.6048 698.167 80.4473C698.116 80.2897 698.075 80.1626 698.043 80.0659C698.007 80.2127 697.968 80.3595 697.925 80.5063C697.886 80.6496 697.846 80.7839 697.807 80.9092C697.767 81.0309 697.733 81.1348 697.705 81.2207L696.77 83.6968H699.338Z" fill="#484848"/>
<path d="M709.135 79.1475C709.78 79.1475 710.312 79.228 710.731 79.3892C711.153 79.5467 711.468 79.7884 711.676 80.1143C711.884 80.4401 711.987 80.8555 711.987 81.3604C711.987 81.7757 711.912 82.123 711.762 82.4023C711.612 82.6781 711.415 82.9019 711.171 83.0737C710.928 83.2456 710.668 83.3781 710.392 83.4712L712.546 87H711.483L709.56 83.7236H707.927V87H707.014V79.1475H709.135ZM709.082 79.937H707.927V82.9502H709.173C709.814 82.9502 710.285 82.8195 710.586 82.5581C710.89 82.2967 711.042 81.9118 711.042 81.4033C711.042 80.8698 710.881 80.492 710.559 80.27C710.24 80.048 709.748 79.937 709.082 79.937Z" fill="#484848"/>
<path d="M718.203 87V79.1475H719.116V87H718.203Z" fill="#484848"/>
<path d="M725.675 79.1475H727.899C728.88 79.1475 729.618 79.2943 730.112 79.5879C730.606 79.8815 730.853 80.381 730.853 81.0864C730.853 81.3908 730.794 81.6647 730.676 81.9082C730.561 82.1481 730.393 82.3468 730.171 82.5044C729.949 82.6619 729.675 82.7712 729.349 82.832V82.8857C729.693 82.9395 729.997 83.0379 730.262 83.1812C730.527 83.3244 730.735 83.5249 730.885 83.7827C731.036 84.0405 731.111 84.3682 731.111 84.7656C731.111 85.249 730.998 85.6572 730.772 85.9902C730.55 86.3232 730.235 86.5757 729.827 86.7476C729.419 86.9159 728.935 87 728.377 87H725.675V79.1475ZM726.588 82.5151H728.092C728.776 82.5151 729.249 82.4023 729.51 82.1768C729.775 81.9512 729.908 81.6217 729.908 81.1885C729.908 80.7409 729.75 80.4186 729.435 80.2217C729.123 80.0247 728.626 79.9263 727.942 79.9263H726.588V82.5151ZM726.588 83.2832V86.2212H728.221C728.919 86.2212 729.413 86.0851 729.703 85.813C729.994 85.5373 730.139 85.1667 730.139 84.7012C730.139 84.404 730.072 84.1497 729.94 83.9385C729.811 83.7272 729.6 83.5661 729.306 83.4551C729.016 83.3405 728.627 83.2832 728.141 83.2832H726.588Z" fill="#484848"/>
<path d="M737.187 79.1475H739.41C740.391 79.1475 741.129 79.2943 741.623 79.5879C742.117 79.8815 742.364 80.381 742.364 81.0864C742.364 81.3908 742.305 81.6647 742.187 81.9082C742.072 82.1481 741.904 82.3468 741.682 82.5044C741.46 82.6619 741.186 82.7712 740.86 82.832V82.8857C741.204 82.9395 741.508 83.0379 741.773 83.1812C742.038 83.3244 742.246 83.5249 742.396 83.7827C742.547 84.0405 742.622 84.3682 742.622 84.7656C742.622 85.249 742.509 85.6572 742.284 85.9902C742.062 86.3232 741.747 86.5757 741.338 86.7476C740.93 86.9159 740.447 87 739.888 87H737.187V79.1475ZM738.1 82.5151H739.604C740.287 82.5151 740.76 82.4023 741.021 82.1768C741.286 81.9512 741.419 81.6217 741.419 81.1885C741.419 80.7409 741.261 80.4186 740.946 80.2217C740.635 80.0247 740.137 79.9263 739.453 79.9263H738.1V82.5151ZM738.1 83.2832V86.2212H739.732C740.431 86.2212 740.925 86.0851 741.215 85.813C741.505 85.5373 741.65 85.1667 741.65 84.7012C741.65 84.404 741.584 84.1497 741.451 83.9385C741.322 83.7272 741.111 83.5661 740.817 83.4551C740.527 83.3405 740.139 83.2832 739.652 83.2832H738.1Z" fill="#484848"/>
<path d="M753.07 87H748.698V79.1475H753.07V79.9531H749.611V82.4937H752.871V83.2886H749.611V86.1943H753.07V87Z" fill="#484848"/>
<path d="M764.135 87L763.169 84.5078H760.021L759.06 87H758.136L761.208 79.1152H762.03L765.081 87H764.135ZM762.895 83.6968L761.976 81.2207C761.955 81.1562 761.919 81.0506 761.869 80.9038C761.822 80.757 761.774 80.6048 761.724 80.4473C761.674 80.2897 761.633 80.1626 761.6 80.0659C761.564 80.2127 761.525 80.3595 761.482 80.5063C761.443 80.6496 761.403 80.7839 761.364 80.9092C761.325 81.0309 761.291 81.1348 761.262 81.2207L760.327 83.6968H762.895Z" fill="#484848"/>
<path d="M776.71 87H775.658L771.377 80.4043H771.334C771.345 80.5798 771.357 80.7803 771.371 81.0059C771.386 81.2279 771.396 81.466 771.404 81.7202C771.414 81.9709 771.42 82.2269 771.42 82.4883V87H770.571V79.1475H771.618L775.883 85.7217H775.921C775.914 85.5964 775.905 85.4191 775.894 85.1899C775.883 84.9572 775.872 84.7083 775.862 84.4434C775.854 84.1748 775.851 83.9259 775.851 83.6968V79.1475H776.71V87Z" fill="#484848"/>
<path d="M794.942 84.9106C794.942 85.3761 794.826 85.7736 794.593 86.103C794.364 86.4289 794.041 86.6777 793.626 86.8496C793.211 87.0215 792.722 87.1074 792.16 87.1074C791.862 87.1074 791.581 87.0931 791.316 87.0645C791.051 87.0358 790.808 86.9946 790.586 86.9409C790.364 86.8872 790.169 86.821 790 86.7422V85.8667C790.269 85.9777 790.597 86.0815 790.983 86.1782C791.37 86.2713 791.775 86.3179 792.197 86.3179C792.591 86.3179 792.924 86.266 793.196 86.1621C793.468 86.0547 793.674 85.9025 793.814 85.7056C793.957 85.505 794.029 85.2651 794.029 84.9858C794.029 84.7173 793.97 84.4935 793.852 84.3145C793.733 84.1318 793.536 83.9671 793.261 83.8203C792.989 83.6699 792.616 83.5106 792.144 83.3423C791.811 83.2241 791.517 83.0952 791.263 82.9556C791.008 82.8123 790.795 82.6512 790.624 82.4722C790.452 82.2931 790.321 82.0854 790.231 81.8491C790.146 81.6128 790.103 81.3424 790.103 81.0381C790.103 80.6191 790.208 80.2611 790.419 79.9639C790.634 79.6631 790.93 79.4339 791.306 79.2764C791.685 79.1152 792.12 79.0347 792.611 79.0347C793.03 79.0347 793.417 79.0741 793.771 79.1528C794.129 79.2316 794.457 79.3372 794.754 79.4697L794.469 80.2539C794.186 80.1357 793.886 80.0373 793.567 79.9585C793.252 79.8797 792.926 79.8403 792.589 79.8403C792.253 79.8403 791.968 79.8905 791.735 79.9907C791.506 80.0874 791.331 80.2253 791.209 80.4043C791.087 80.5833 791.026 80.7964 791.026 81.0435C791.026 81.3192 791.084 81.5483 791.198 81.731C791.316 81.9136 791.503 82.0765 791.757 82.2197C792.015 82.3594 792.355 82.5062 792.777 82.6602C793.239 82.8285 793.631 83.0075 793.954 83.1973C794.276 83.3835 794.521 83.6126 794.689 83.8848C794.858 84.1533 794.942 84.4953 794.942 84.9106Z" fill="#484848"/>
<path d="M805.32 87H800.948V79.1475H805.32V79.9531H801.861V82.4937H805.121V83.2886H801.861V86.1943H805.32V87Z" fill="#484848"/>
<path d="M816.385 87L815.419 84.5078H812.271L811.31 87H810.386L813.458 79.1152H814.28L817.331 87H816.385ZM815.145 83.6968L814.226 81.2207C814.205 81.1562 814.169 81.0506 814.119 80.9038C814.072 80.757 814.024 80.6048 813.974 80.4473C813.924 80.2897 813.883 80.1626 813.85 80.0659C813.814 80.2127 813.775 80.3595 813.732 80.5063C813.693 80.6496 813.653 80.7839 813.614 80.9092C813.575 81.0309 813.541 81.1348 813.512 81.2207L812.577 83.6968H815.145Z" fill="#484848"/>
<path d="M693.431 370.84C692.998 370.84 692.608 370.916 692.26 371.066C691.917 371.213 691.623 371.428 691.379 371.71C691.139 371.99 690.955 372.328 690.826 372.726C690.697 373.123 690.633 373.571 690.633 374.068C690.633 374.727 690.735 375.3 690.939 375.787C691.147 376.271 691.455 376.645 691.863 376.91C692.275 377.175 692.788 377.307 693.404 377.307C693.755 377.307 694.085 377.278 694.393 377.221C694.704 377.16 695.007 377.085 695.3 376.996V377.791C695.014 377.898 694.713 377.977 694.398 378.027C694.083 378.081 693.709 378.107 693.275 378.107C692.477 378.107 691.809 377.943 691.272 377.613C690.738 377.28 690.337 376.811 690.069 376.206C689.804 375.601 689.671 374.887 689.671 374.063C689.671 373.469 689.754 372.926 689.918 372.436C690.087 371.941 690.33 371.515 690.649 371.157C690.971 370.799 691.365 370.523 691.831 370.33C692.3 370.133 692.837 370.035 693.442 370.035C693.839 370.035 694.222 370.074 694.591 370.153C694.96 370.232 695.293 370.344 695.59 370.491L695.225 371.265C694.974 371.15 694.699 371.052 694.398 370.969C694.101 370.883 693.778 370.84 693.431 370.84Z" fill="#484848"/>
<path d="M708.214 374.063C708.214 374.668 708.137 375.22 707.983 375.717C707.829 376.211 707.599 376.638 707.295 376.996C706.994 377.35 706.62 377.624 706.172 377.817C705.725 378.011 705.206 378.107 704.615 378.107C704.006 378.107 703.474 378.011 703.02 377.817C702.568 377.624 702.193 377.348 701.892 376.99C701.595 376.632 701.371 376.204 701.22 375.707C701.074 375.209 701 374.657 701 374.052C701 373.25 701.133 372.547 701.398 371.941C701.663 371.336 702.064 370.865 702.601 370.529C703.141 370.192 703.818 370.024 704.631 370.024C705.408 370.024 706.061 370.19 706.591 370.523C707.125 370.856 707.528 371.326 707.8 371.931C708.076 372.532 708.214 373.243 708.214 374.063ZM701.962 374.063C701.962 374.729 702.056 375.306 702.246 375.792C702.436 376.279 702.726 376.655 703.116 376.92C703.51 377.185 704.01 377.318 704.615 377.318C705.224 377.318 705.721 377.185 706.108 376.92C706.498 376.655 706.787 376.279 706.973 375.792C707.159 375.306 707.252 374.729 707.252 374.063C707.252 373.05 707.039 372.258 706.613 371.689C706.19 371.116 705.53 370.83 704.631 370.83C704.022 370.83 703.521 370.96 703.127 371.222C702.733 371.483 702.44 371.855 702.246 372.339C702.056 372.819 701.962 373.393 701.962 374.063Z" fill="#484848"/>
<path d="M714.364 378V370.147H715.278V377.184H718.763V378H714.364Z" fill="#484848"/>
<path d="M731.322 374.063C731.322 374.668 731.245 375.22 731.091 375.717C730.937 376.211 730.708 376.638 730.404 376.996C730.103 377.35 729.729 377.624 729.281 377.817C728.833 378.011 728.314 378.107 727.723 378.107C727.115 378.107 726.583 378.011 726.128 377.817C725.677 377.624 725.301 377.348 725 376.99C724.703 376.632 724.479 376.204 724.329 375.707C724.182 375.209 724.109 374.657 724.109 374.052C724.109 373.25 724.241 372.547 724.506 371.941C724.771 371.336 725.172 370.865 725.709 370.529C726.25 370.192 726.927 370.024 727.74 370.024C728.517 370.024 729.17 370.19 729.7 370.523C730.234 370.856 730.636 371.326 730.909 371.931C731.184 372.532 731.322 373.243 731.322 374.063ZM725.07 374.063C725.07 374.729 725.165 375.306 725.355 375.792C725.545 376.279 725.835 376.655 726.225 376.92C726.619 377.185 727.118 377.318 727.723 377.318C728.332 377.318 728.83 377.185 729.217 376.92C729.607 376.655 729.895 376.279 730.081 375.792C730.268 375.306 730.361 374.729 730.361 374.063C730.361 373.05 730.148 372.258 729.721 371.689C729.299 371.116 728.638 370.83 727.74 370.83C727.131 370.83 726.63 370.96 726.236 371.222C725.842 371.483 725.548 371.855 725.355 372.339C725.165 372.819 725.07 373.393 725.07 374.063Z" fill="#484848"/>
<path d="M740.927 378L738.289 371.05H738.246C738.261 371.197 738.273 371.376 738.284 371.587C738.295 371.798 738.304 372.029 738.311 372.28C738.318 372.527 738.322 372.779 738.322 373.037V378H737.473V370.147H738.827L741.313 376.679H741.351L743.875 370.147H745.218V378H744.316V372.973C744.316 372.74 744.319 372.507 744.327 372.274C744.334 372.038 744.343 371.816 744.353 371.608C744.364 371.397 744.375 371.215 744.386 371.061H744.343L741.673 378H740.927Z" fill="#484848"/>
<path d="M751.767 370.147H753.99C754.971 370.147 755.709 370.294 756.203 370.588C756.697 370.882 756.944 371.381 756.944 372.086C756.944 372.391 756.885 372.665 756.767 372.908C756.653 373.148 756.484 373.347 756.262 373.504C756.04 373.662 755.766 373.771 755.44 373.832V373.886C755.784 373.939 756.089 374.038 756.354 374.181C756.618 374.324 756.826 374.525 756.977 374.783C757.127 375.041 757.202 375.368 757.202 375.766C757.202 376.249 757.089 376.657 756.864 376.99C756.642 377.323 756.327 377.576 755.918 377.748C755.51 377.916 755.027 378 754.468 378H751.767V370.147ZM752.68 373.515H754.184C754.868 373.515 755.34 373.402 755.602 373.177C755.867 372.951 755.999 372.622 755.999 372.188C755.999 371.741 755.841 371.419 755.526 371.222C755.215 371.025 754.717 370.926 754.033 370.926H752.68V373.515ZM752.68 374.283V377.221H754.312C755.011 377.221 755.505 377.085 755.795 376.813C756.085 376.537 756.23 376.167 756.23 375.701C756.23 375.404 756.164 375.15 756.031 374.938C755.902 374.727 755.691 374.566 755.397 374.455C755.107 374.34 754.719 374.283 754.232 374.283H752.68Z" fill="#484848"/>
<path d="M763.278 378V370.147H764.191V378H763.278Z" fill="#484848"/>
<path d="M775.675 378L774.709 375.508H771.561L770.6 378H769.676L772.748 370.115H773.57L776.621 378H775.675ZM774.435 374.697L773.516 372.221C773.495 372.156 773.459 372.051 773.409 371.904C773.362 371.757 773.314 371.605 773.264 371.447C773.214 371.29 773.173 371.163 773.14 371.066C773.105 371.213 773.065 371.36 773.022 371.506C772.983 371.65 772.943 371.784 772.904 371.909C772.865 372.031 772.831 372.135 772.802 372.221L771.867 374.697H774.435Z" fill="#484848"/>
<path d="M134.074 641.147H136.298C137.279 641.147 138.017 641.294 138.511 641.588C139.005 641.882 139.252 642.381 139.252 643.086C139.252 643.391 139.193 643.665 139.075 643.908C138.96 644.148 138.792 644.347 138.57 644.504C138.348 644.662 138.074 644.771 137.748 644.832V644.886C138.092 644.939 138.396 645.038 138.661 645.181C138.926 645.324 139.134 645.525 139.284 645.783C139.435 646.041 139.51 646.368 139.51 646.766C139.51 647.249 139.397 647.657 139.171 647.99C138.949 648.323 138.634 648.576 138.226 648.748C137.818 648.916 137.334 649 136.776 649H134.074V641.147ZM134.987 644.515H136.491C137.175 644.515 137.648 644.402 137.909 644.177C138.174 643.951 138.307 643.622 138.307 643.188C138.307 642.741 138.149 642.419 137.834 642.222C137.522 642.025 137.025 641.926 136.341 641.926H134.987V644.515ZM134.987 645.283V648.221H136.62C137.318 648.221 137.812 648.085 138.103 647.813C138.393 647.537 138.538 647.167 138.538 646.701C138.538 646.404 138.471 646.15 138.339 645.938C138.21 645.727 137.999 645.566 137.705 645.455C137.415 645.34 137.027 645.283 136.54 645.283H134.987Z" fill="#484848"/>
<path d="M150.511 649L149.544 646.508H146.397L145.435 649H144.511L147.584 641.115H148.405L151.456 649H150.511ZM149.27 645.697L148.352 643.221C148.33 643.156 148.294 643.051 148.244 642.904C148.198 642.757 148.149 642.605 148.099 642.447C148.049 642.29 148.008 642.163 147.976 642.066C147.94 642.213 147.9 642.36 147.858 642.506C147.818 642.65 147.779 642.784 147.739 642.909C147.7 643.031 147.666 643.135 147.637 643.221L146.703 645.697H149.27Z" fill="#484848"/>
<path d="M159.068 641.147C159.713 641.147 160.244 641.228 160.663 641.389C161.086 641.547 161.401 641.788 161.609 642.114C161.816 642.44 161.92 642.855 161.92 643.36C161.92 643.776 161.845 644.123 161.695 644.402C161.544 644.678 161.347 644.902 161.104 645.074C160.86 645.246 160.601 645.378 160.325 645.471L162.479 649H161.415L159.492 645.724H157.86V649H156.946V641.147H159.068ZM159.014 641.937H157.86V644.95H159.106C159.747 644.95 160.217 644.819 160.518 644.558C160.823 644.297 160.975 643.912 160.975 643.403C160.975 642.87 160.814 642.492 160.491 642.27C160.173 642.048 159.68 641.937 159.014 641.937Z" fill="#484848"/>
<path d="M170.257 641.147C170.902 641.147 171.433 641.228 171.852 641.389C172.275 641.547 172.59 641.788 172.798 642.114C173.005 642.44 173.109 642.855 173.109 643.36C173.109 643.776 173.034 644.123 172.884 644.402C172.733 644.678 172.536 644.902 172.293 645.074C172.049 645.246 171.79 645.378 171.514 645.471L173.668 649H172.604L170.681 645.724H169.049V649H168.136V641.147H170.257ZM170.203 641.937H169.049V644.95H170.295C170.936 644.95 171.407 644.819 171.707 644.558C172.012 644.297 172.164 643.912 172.164 643.403C172.164 642.87 172.003 642.492 171.68 642.27C171.362 642.048 170.869 641.937 170.203 641.937Z" fill="#484848"/>
<path d="M184.25 649L183.283 646.508H180.136L179.174 649H178.25L181.323 641.115H182.144L185.195 649H184.25ZM183.009 645.697L182.091 643.221C182.069 643.156 182.033 643.051 181.983 642.904C181.937 642.757 181.888 642.605 181.838 642.447C181.788 642.29 181.747 642.163 181.715 642.066C181.679 642.213 181.64 642.36 181.597 642.506C181.557 642.65 181.518 642.784 181.478 642.909C181.439 643.031 181.405 643.135 181.376 643.221L180.442 645.697H183.009Z" fill="#484848"/>
<path d="M196.825 649H195.772L191.491 642.404H191.448C191.459 642.58 191.472 642.78 191.486 643.006C191.5 643.228 191.511 643.466 191.518 643.72C191.529 643.971 191.534 644.227 191.534 644.488V649H190.686V641.147H191.733L195.998 647.722H196.035C196.028 647.596 196.019 647.419 196.008 647.19C195.998 646.957 195.987 646.708 195.976 646.443C195.969 646.175 195.965 645.926 195.965 645.697V641.147H196.825V649Z" fill="#484848"/>
<path d="M210.178 645.063C210.178 645.708 210.091 646.291 209.915 646.814C209.74 647.337 209.478 647.779 209.131 648.141C208.787 648.502 208.358 648.765 207.842 648.93L209.69 650.869H208.384L206.864 649.097C206.818 649.097 206.769 649.098 206.719 649.102C206.673 649.106 206.626 649.107 206.58 649.107C205.971 649.107 205.439 649.011 204.984 648.817C204.533 648.624 204.157 648.348 203.857 647.99C203.559 647.632 203.336 647.204 203.185 646.707C203.038 646.209 202.965 645.657 202.965 645.052C202.965 644.25 203.097 643.547 203.362 642.941C203.627 642.336 204.028 641.865 204.566 641.529C205.106 641.192 205.783 641.024 206.596 641.024C207.373 641.024 208.026 641.19 208.556 641.523C209.09 641.856 209.493 642.326 209.765 642.931C210.04 643.532 210.178 644.243 210.178 645.063ZM203.926 645.063C203.926 645.729 204.021 646.306 204.211 646.792C204.401 647.279 204.691 647.655 205.081 647.92C205.475 648.185 205.975 648.318 206.58 648.318C207.188 648.318 207.686 648.185 208.073 647.92C208.463 647.655 208.751 647.279 208.938 646.792C209.124 646.306 209.217 645.729 209.217 645.063C209.217 644.05 209.004 643.258 208.578 642.689C208.155 642.116 207.495 641.83 206.596 641.83C205.987 641.83 205.486 641.96 205.092 642.222C204.698 642.483 204.404 642.855 204.211 643.339C204.021 643.819 203.926 644.393 203.926 645.063Z" fill="#484848"/>
<path d="M222.27 641.147V646.229C222.27 646.784 222.157 647.278 221.931 647.711C221.709 648.144 221.373 648.486 220.922 648.737C220.47 648.984 219.905 649.107 219.224 649.107C218.254 649.107 217.515 648.844 217.006 648.318C216.501 647.792 216.249 647.088 216.249 646.207V641.147H217.167V646.234C217.167 646.9 217.343 647.414 217.694 647.775C218.048 648.137 218.576 648.318 219.278 648.318C219.758 648.318 220.15 648.232 220.454 648.06C220.762 647.885 220.99 647.641 221.136 647.33C221.287 647.014 221.362 646.651 221.362 646.239V641.147H222.27Z" fill="#484848"/>
<path d="M228.754 649V641.147H229.667V649H228.754Z" fill="#484848"/>
<path d="M236.226 649V641.147H237.139V648.184H240.625V649H236.226Z" fill="#484848"/>
<path d="M246.373 649V641.147H247.286V648.184H250.772V649H246.373Z" fill="#484848"/>
<path d="M261.445 649L260.479 646.508H257.331L256.37 649H255.446L258.518 641.115H259.34L262.391 649H261.445ZM260.205 645.697L259.286 643.221C259.265 643.156 259.229 643.051 259.179 642.904C259.132 642.757 259.084 642.605 259.034 642.447C258.984 642.29 258.942 642.163 258.91 642.066C258.874 642.213 258.835 642.36 258.792 642.506C258.753 642.65 258.713 642.784 258.674 642.909C258.635 643.031 258.601 643.135 258.572 643.221L257.637 645.697H260.205Z" fill="#484848"/>
</g>
<path d="M44.3317 448.909L20.3901 454.722C19.7512 454.877 19.3014 455.449 19.3014 456.107C19.3014 457.028 20.1628 457.707 21.0588 457.492L46.2709 451.443C46.5915 451.366 46.9013 451.249 47.1933 451.097L60.5542 444.099C61.512 443.598 62.6746 443.702 63.5282 444.366C64.6138 445.21 66.1553 445.126 67.1426 444.169L77.5 434.127L84.8087 426.568C86.5349 424.783 89.4538 424.985 90.9167 426.992L103.404 444.123C103.701 444.53 103.919 444.991 104.045 445.479L106.531 455.11C106.696 455.749 107.017 456.338 107.465 456.824L108.913 458.392C110.179 459.763 112.298 459.896 113.725 458.695C115.729 457.007 118.81 458.049 119.378 460.607L120.088 463.798C120.243 464.498 120.208 465.226 119.985 465.908L115.37 480.04C114.832 481.685 113.298 482.798 111.567 482.798H108.138C106.83 482.798 105.604 483.438 104.856 484.511L98.682 493.368C98.0152 494.325 96.9642 494.942 95.8042 495.06L79.436 496.72C76.3358 497.035 74.0825 493.84 75.4188 491.025L81.4917 478.232C82.0177 477.123 81.2096 475.845 79.9831 475.845C79.3574 475.845 78.7842 476.195 78.498 476.752L73.2401 486.973C72.6928 488.037 71.6978 488.8 70.5283 489.053L59.4007 491.458C59.0239 491.54 58.6609 491.675 58.3228 491.861L25.0962 510.078C24.8937 510.189 24.7012 510.317 24.5208 510.461L2.50155 528.073C1.55249 528.832 1 529.981 1 531.197V537.667C1 540.032 3.04035 541.88 5.39359 541.648L66.4555 535.61C67.2142 535.535 67.9784 535.678 68.6583 536.023L89.9 546.796C91.6223 547.669 92.4747 549.648 91.926 551.5L87.3947 566.789C87.1493 567.617 87.1785 568.502 87.4778 569.312L106.607 621.083C107.465 623.404 106.031 625.939 103.601 626.4L87.6443 629.425C87.2286 629.504 86.828 629.648 86.4575 629.853L77.6652 634.702C76.8487 635.153 76.2153 635.874 75.8743 636.742L73.2737 643.36C72.7227 644.762 73.0063 646.355 74.0072 647.481L86.1731 661.165C86.7221 661.782 87.0663 662.554 87.1587 663.375L89.7965 686.817C90.0683 689.232 92.4134 690.849 94.7674 690.244L99.1604 689.114C101.334 688.556 103.542 689.894 104.052 692.079L110.704 720.583C110.773 720.881 110.809 721.186 110.809 721.492V754.387C110.809 755.725 111.477 756.974 112.59 757.716L140.856 776.555C141.317 776.863 141.837 777.071 142.383 777.167L199.455 787.177C201.903 787.607 204.146 785.723 204.146 783.237V774.553C204.146 773.338 204.698 772.188 205.647 771.429L224.055 756.706C224.203 756.588 224.359 756.48 224.523 756.384L258.648 736.272C258.915 736.115 259.2 735.989 259.496 735.897L288.884 726.803C289.484 726.617 290.119 726.575 290.738 726.681L302.329 728.653C304.771 729.069 307 727.187 307 724.71V662.539C307 662.256 306.97 661.974 306.911 661.698L298.717 623.589C298.627 623.17 298.471 622.769 298.253 622.4L279.461 590.496C279.276 590.181 279.048 589.893 278.785 589.64L233.062 545.742L193.519 502.942C193.284 502.688 193.017 502.466 192.725 502.28L162.053 482.798L123.755 458.236C123.423 458.022 123.123 457.761 122.867 457.46L89.183 417.84C87.5145 415.877 84.4529 415.98 82.9204 418.051L72.8497 431.657C72.5367 432.08 72.1434 432.437 71.6922 432.707L45.4456 448.452C45.0995 448.66 44.7239 448.814 44.3317 448.909Z" stroke="#00845B" stroke-width="2"/>
</svg>
