<svg width="426" height="515" viewBox="0 0 426 515" fill="none" xmlns="http://www.w3.org/2000/svg">
<g clip-path="url(#clip0_55_711)">
<path d="M264.63 233.29L217.76 207.65L216.19 205.51L217.08 205.01L228.33 211.48L248.69 223.24V209.05L227.83 208.04V208.36L227.21 208.12L227.48 207.97L249.91 209.09V223.9L266.34 233.39V235.33L265.51 235.8L264.62 233.28L264.63 233.29ZM264.65 209.84L266.34 209.92V210.39L265.32 210.96L264.64 209.83L264.65 209.84Z" fill="#484848"/>
<path d="M215.72 207.72V206.98L225.88 212.82V212.73L246.46 224.62L245.96 223.75L247.54 223.8V225.24L263.97 234.73V235.59L215.72 207.72Z" fill="#484848"/>
<path d="M182.41 226.74L183.87 227.59L184.3 225.64L182.41 225.03V226.73V226.74Z" fill="#484848"/>
<path d="M216.72 206.96V208.66L183.87 227.65V225.89L216.72 206.96Z" fill="#484848"/>
<path d="M183.87 225.88L182.41 225.03L215.26 206.04L216.72 206.95L183.87 225.88Z" fill="#484848"/>
<path d="M192.15 232.34L193.67 233.25L194.03 231.24L192.14 230.63V232.33L192.15 232.34Z" fill="#484848"/>
<path d="M226.46 212.5V214.27L193.67 233.26V231.5L226.46 212.51V212.5Z" fill="#484848"/>
<path d="M193.67 231.48L192.15 230.63L225 211.64L226.46 212.49L193.67 231.48Z" fill="#484848"/>
<path d="M214.11 245.05L215.63 245.9L215.99 243.95L214.1 243.34V245.04L214.11 245.05Z" fill="#484848"/>
<path d="M248.42 225.22L248.48 226.92L215.63 245.91V244.21L248.42 225.22Z" fill="#484848"/>
<path d="M215.63 244.2L214.11 243.35L246.96 224.36L248.42 225.21L215.63 244.2Z" fill="#484848"/>
<path d="M214.11 230.27L215.63 231.12L215.99 229.17L214.1 228.56V230.26L214.11 230.27Z" fill="#484848"/>
<path d="M248.42 210.43L248.48 212.2L215.63 231.12V229.42L248.42 210.43Z" fill="#484848"/>
<path d="M215.63 229.41L214.11 228.56L246.96 209.57L248.42 210.42L215.63 229.41Z" fill="#484848"/>
<path d="M229.71 253.49L182.84 227.85L181.27 225.71L182.16 225.21L193.32 231.63V231.57L212.26 242.51L211.76 241.64L213.76 241.7V229.25L202.33 228.66L214.98 229.29V244.04L231.41 253.53V255.53L230.58 256L229.69 253.48L229.71 253.49ZM229.73 230.04L231.43 230.12V230.59L230.41 231.16L229.73 230.03V230.04ZM192.3 228.33L192.57 228.18L192.91 228.2V228.57L192.29 228.33H192.3Z" fill="#484848"/>
<path d="M180.8 227.8V227.06L190.96 232.9V232.87L211.54 244.76L211.04 243.89L212.62 243.94V245.38L229.05 254.87V255.66L180.8 227.79V227.8ZM190.96 229.53V229.49L212.63 230.57V230.63L190.96 229.53Z" fill="#484848"/>
<path d="M223.9 206.47V207.69L221.65 208.97L220.8 207.33L223.9 206.48V206.47Z" fill="#484848"/>
<path d="M221.65 207.81V208.97H218.36L216.05 206.48L221.65 207.82V207.81Z" fill="#484848"/>
<path d="M218.37 207.81V208.97L216.06 207.69V206.47L218.37 207.81Z" fill="#484848"/>
<path d="M218.64 206.81L217.06 205.9V205.16L218.64 204.25H221.38L222.9 205.16V205.9L221.38 206.81H218.64Z" fill="#484848"/>
<path d="M223.9 204.83V206.05L221.65 207.39L220.8 205.69L223.9 204.84V204.83Z" fill="#484848"/>
<path d="M221.65 206.17V207.39H218.36L216.05 204.84L221.65 206.18V206.17Z" fill="#484848"/>
<path d="M218.37 206.17V207.39L216.06 206.05V204.83L218.37 206.17Z" fill="#484848"/>
<path d="M218.64 205.17L217.06 204.25V203.52L218.64 202.6H221.38L222.9 203.51V204.26L221.38 205.17H218.64Z" fill="#484848"/>
<path d="M223.9 203.19V204.41L221.65 205.75L220.8 204.05L223.9 203.2V203.19Z" fill="#484848"/>
<path d="M221.65 204.53V205.75H218.36L216.05 203.19L221.65 204.53Z" fill="#484848"/>
<path d="M218.37 204.53V205.75L216.06 204.41V203.19L218.37 204.53Z" fill="#484848"/>
<path d="M218.64 203.53L217.06 202.61V201.89L218.62 201.02H221.39L222.9 201.88V202.62L221.38 203.53H218.64Z" fill="#484848"/>
<path d="M223.9 201.6V202.76L221.65 204.1L220.8 202.4L223.9 201.61V201.6Z" fill="#484848"/>
<path d="M221.65 202.88V204.1H218.36L216.05 201.61L221.65 202.89V202.88Z" fill="#484848"/>
<path d="M218.37 202.88V204.1L216.06 202.76V201.6L218.37 202.88Z" fill="#484848"/>
<path d="M218.62 201.88L217.06 201.01V200.3L218.64 199.38H221.38L222.9 200.29V201.02L221.39 201.88H218.62Z" fill="#484848"/>
<path d="M223.9 199.96V201.12L221.65 202.46L220.8 200.82L223.9 199.97V199.96Z" fill="#484848"/>
<path d="M221.65 201.3V202.46H218.36L216.05 199.97L221.65 201.31V201.3Z" fill="#484848"/>
<path d="M218.37 201.3V202.46L216.06 201.12V199.96L218.37 201.3Z" fill="#484848"/>
<path d="M218.64 200.3L217.06 199.39V198.65L218.64 197.74H221.38L222.9 198.64V199.39L221.38 200.3H218.64Z" fill="#484848"/>
<path d="M220.98 194.97V199.35L220.43 199.65L220.19 195.15L220.98 194.97Z" fill="#484848"/>
<path d="M220.44 195.34V199.66H219.59L219.04 194.98L220.44 195.35V195.34Z" fill="#484848"/>
<path d="M219.58 195.34V199.66L219.03 199.36V194.98L219.58 195.35V195.34Z" fill="#484848"/>
<path d="M219.04 194.49V194.98L219.59 195.35H220.44L220.99 194.98V194.49L220.44 194.19H219.59L219.04 194.49Z" fill="#484848"/>
<path d="M189.17 226.55V227.77L186.86 229.05L186.01 227.41L189.17 226.56V226.55Z" fill="#484848"/>
<path d="M186.85 227.89V229.05H183.56L181.25 226.56L186.85 227.9V227.89Z" fill="#484848"/>
<path d="M183.57 227.89V229.05L181.26 227.77V226.55L183.57 227.89Z" fill="#484848"/>
<path d="M183.84 226.89L182.26 225.98V225.26L183.83 224.39H186.6L188.17 225.26V225.98L186.58 226.89H183.84Z" fill="#484848"/>
<path d="M189.17 224.91V226.13L186.86 227.47L186.01 225.77L189.17 224.92V224.91Z" fill="#484848"/>
<path d="M186.85 226.25V227.47H183.56L181.25 224.91L186.85 226.25Z" fill="#484848"/>
<path d="M183.57 226.25V227.47L181.26 226.13V224.91L183.57 226.25Z" fill="#484848"/>
<path d="M183.84 225.25L182.26 224.34V223.6L183.84 222.69H186.58L188.17 223.6V224.34L186.58 225.25H183.84Z" fill="#484848"/>
<path d="M189.17 223.27V224.49L186.86 225.83L186.01 224.13L189.17 223.28V223.27Z" fill="#484848"/>
<path d="M186.85 224.61V225.83H183.56L181.25 223.27L186.85 224.61Z" fill="#484848"/>
<path d="M183.57 224.61V225.83L181.26 224.49V223.27L183.57 224.61Z" fill="#484848"/>
<path d="M183.84 223.61L182.26 222.69V222.02L183.84 221.1H186.58L188.17 222.02V222.69L186.58 223.61H183.84Z" fill="#484848"/>
<path d="M189.17 221.69V222.85L186.86 224.19L186.01 222.55L189.17 221.7V221.69Z" fill="#484848"/>
<path d="M186.85 222.96V224.18H183.56L181.25 221.69L186.85 222.97V222.96Z" fill="#484848"/>
<path d="M183.57 222.96V224.18L181.26 222.84V221.68L183.57 222.96Z" fill="#484848"/>
<path d="M183.83 221.96L182.26 221.1V220.38L183.84 219.46H186.58L188.17 220.38V221.1L186.6 221.96H183.83Z" fill="#484848"/>
<path d="M189.17 220.04V221.2L186.86 222.54L186.01 220.9L189.17 220.05V220.04Z" fill="#484848"/>
<path d="M186.85 221.38V222.54H183.56L181.25 220.05L186.85 221.39V221.38Z" fill="#484848"/>
<path d="M183.57 221.38V222.54L181.26 221.2V220.04L183.57 221.38Z" fill="#484848"/>
<path d="M183.84 220.38L182.26 219.47V218.73L183.84 217.82H186.58L188.17 218.73V219.47L186.58 220.38H183.84Z" fill="#484848"/>
<path d="M186.18 215.05V219.43L185.63 219.73L185.39 215.29L186.18 215.05Z" fill="#484848"/>
<path d="M185.64 215.42V219.74H184.79L184.24 215.05L185.64 215.42Z" fill="#484848"/>
<path d="M184.78 215.42V219.74L184.23 219.44V215.06L184.78 215.43V215.42Z" fill="#484848"/>
<path d="M184.24 214.57V215.06L184.79 215.43H185.64L186.19 215.06V214.57L185.64 214.27H184.79L184.24 214.57Z" fill="#484848"/>
<path d="M219.75 195.01L219.43 194.68V194.21L219.77 193.84H220.18L220.53 194.21V194.68L220.2 195.01H219.75Z" fill="#484848"/>
<path d="M184.96 215.09L184.63 214.76V214.27L184.94 213.98H185.44L185.79 214.29V214.74L185.42 215.09H184.96Z" fill="#484848"/>
<path d="M221 194.15L250.57 189.12L273.43 177.27L273.59 177.57L250.66 189.39L221.06 194.49L221 194.15Z" fill="#484848"/>
<path d="M131.65 259.15L158.72 241.14L184.48 215.19L184.71 215.42L158.84 241.41L131.83 259.42L131.65 259.15Z" fill="#484848"/>
<path d="M264.04 149.96L204.93 115.85L195.21 109.93L195.6 109.71L204.88 115.03V110.11L205.4 109.82L266.27 128.04V128.6L265.44 129.07L265.11 128.16L249.3 124.12V140.71L266.33 150.57V152.45L265.41 152.97L264.03 149.96H264.04ZM228.99 128.97L248.23 140.05L248.02 123.38L229 117.81V128.97H228.99ZM205.93 115.64L227.7 128.24V126.51L227.9 117.37L205.93 110.74V115.65V115.64Z" fill="#484848"/>
<path d="M194.24 112.43V111.69L203.98 117.29V117.26L227.11 130.6L247.35 142.3L263.97 151.92V152.71L194.24 112.43Z" fill="#484848"/>
<path d="M160.94 131.5L162.46 132.35L162.83 130.4L160.94 129.79V131.49V131.5Z" fill="#484848"/>
<path d="M195.25 111.67L195.31 113.37L162.46 132.36V130.66L195.25 111.67Z" fill="#484848"/>
<path d="M162.46 130.65L160.94 129.8L193.79 110.81L195.25 111.66L162.46 130.65Z" fill="#484848"/>
<path d="M170.24 136.86L171.7 137.71L172.13 135.76L170.24 135.15V136.85V136.86Z" fill="#484848"/>
<path d="M204.56 117.02V118.78L171.71 137.71V136.01L204.56 117.02Z" fill="#484848"/>
<path d="M171.7 136.01L170.24 135.16L203.09 116.17L204.55 117.02L171.7 136.01Z" fill="#484848"/>
<path d="M193.24 150.12L194.7 150.97L195.13 149.02L193.24 148.41V150.11V150.12Z" fill="#484848"/>
<path d="M227.55 130.29V131.99L194.7 150.98L194.76 149.28L227.55 130.29Z" fill="#484848"/>
<path d="M194.76 149.27L193.24 148.42L226.09 129.43L227.55 130.28L194.76 149.27Z" fill="#484848"/>
<path d="M193.24 137.89L194.7 138.74L195.13 136.79L193.24 136.18V137.88V137.89Z" fill="#484848"/>
<path d="M227.55 118.05V119.81L194.7 138.74L194.76 137.04L227.55 118.05Z" fill="#484848"/>
<path d="M194.76 137.04L193.24 136.19L226.09 117.2L227.55 118.05L194.76 137.04Z" fill="#484848"/>
<path d="M213.62 161.87L215.08 162.72L215.51 160.77L213.62 160.16V161.86V161.87Z" fill="#484848"/>
<path d="M247.93 142.09V143.79L215.08 162.72V161.02L247.93 142.09Z" fill="#484848"/>
<path d="M215.08 161.02L213.62 160.17L246.47 141.18L247.93 142.09L215.08 161.02Z" fill="#484848"/>
<path d="M213.62 143.98L215.08 144.83L215.51 142.88L213.62 142.21V143.97V143.98Z" fill="#484848"/>
<path d="M247.93 124.14V125.84L215.08 144.83V143.07L247.93 124.14Z" fill="#484848"/>
<path d="M215.08 143.07L213.62 142.22L246.47 123.3L247.93 124.15L215.08 143.08V143.07Z" fill="#484848"/>
<path d="M229.12 170.17L170.01 136.06L160.29 130.14L160.68 129.92L169.83 135.21L170.04 130.32L170.54 130.04L231.41 148.26V148.82L230.59 149.28L230.26 148.32L214.38 144.28V160.87L231.41 170.73V172.67L230.49 173.19L229.11 170.18L229.12 170.17ZM194.07 149.12L213.31 160.2L213.1 143.53L194.08 137.96V149.12H194.07ZM171.01 135.79L192.78 148.39V146.66L192.98 137.52L171.01 130.89V135.79Z" fill="#484848"/>
<path d="M159.32 132.57V131.83L169.14 137.48L190.55 149.83L190.05 148.97L191.69 149.02V150.46L212.43 162.45L229.05 172.06V172.85L159.32 132.57Z" fill="#484848"/>
<path d="M202.31 111.18V112.4L200 113.68L199.21 112.04L202.31 111.19V111.18Z" fill="#484848"/>
<path d="M199.99 112.52V113.68H196.7L194.39 111.18L199.99 112.52Z" fill="#484848"/>
<path d="M196.71 112.52V113.68L194.4 112.4V111.18L196.71 112.52Z" fill="#484848"/>
<path d="M196.98 111.52L195.4 110.6V109.87L196.98 108.95H199.73L201.31 109.87V110.6L199.73 111.52H196.98Z" fill="#484848"/>
<path d="M202.31 109.54V110.76L200 112.04L199.21 110.4L202.31 109.55V109.54Z" fill="#484848"/>
<path d="M199.99 110.87V112.03H196.7L194.39 109.54L199.99 110.88V110.87Z" fill="#484848"/>
<path d="M196.71 110.87V112.03L194.4 110.75V109.53L196.71 110.87Z" fill="#484848"/>
<path d="M196.98 109.87L195.4 108.96V108.23L196.98 107.31H199.73L201.31 108.23V108.96L199.73 109.87H196.98Z" fill="#484848"/>
<path d="M202.31 107.89V109.11L200 110.45L199.21 108.75L202.31 107.9V107.89Z" fill="#484848"/>
<path d="M199.99 109.23V110.45H196.7L194.39 107.89L199.99 109.23Z" fill="#484848"/>
<path d="M196.71 109.23V110.45L194.4 109.11V107.89L196.71 109.23Z" fill="#484848"/>
<path d="M196.98 108.23L195.4 107.32V106.6L196.97 105.73H199.74L201.31 106.6V107.32L199.73 108.23H196.98Z" fill="#484848"/>
<path d="M202.31 106.25V107.47L200 108.81L199.21 107.11L202.31 106.26V106.25Z" fill="#484848"/>
<path d="M199.99 107.59V108.81H196.7L194.39 106.25L199.99 107.59Z" fill="#484848"/>
<path d="M196.71 107.59V108.81L194.4 107.47V106.25L196.71 107.59Z" fill="#484848"/>
<path d="M196.98 106.59L195.4 105.67V105L196.98 104.09H199.73L201.31 105V105.67L199.73 106.59H196.98Z" fill="#484848"/>
<path d="M202.31 104.61V105.83L200 107.17L199.21 105.47L202.31 104.62V104.61Z" fill="#484848"/>
<path d="M199.99 105.95V107.17H196.7L194.39 104.61L199.99 105.95Z" fill="#484848"/>
<path d="M196.71 105.95V107.17L194.4 105.83V104.61L196.71 105.95Z" fill="#484848"/>
<path d="M196.98 104.95L195.4 104.03V103.36L196.98 102.44H199.73L201.31 103.36V104.03L199.73 104.95H196.98Z" fill="#484848"/>
<path d="M199.32 99.6801V104.06L198.77 104.37L198.53 99.8701L199.32 99.6901V99.6801Z" fill="#484848"/>
<path d="M198.78 99.98V104.36H197.93L197.38 99.67L198.78 99.97V99.98Z" fill="#484848"/>
<path d="M197.93 99.98V104.36L197.38 104.05V99.67L197.93 99.97V99.98Z" fill="#484848"/>
<path d="M197.38 99.19V99.68L197.93 99.98H198.78L199.33 99.68V99.19L198.78 98.89H197.93L197.38 99.19Z" fill="#484848"/>
<path d="M167.51 131.26V132.48L165.2 133.76L164.41 132.12L167.51 131.27V131.26Z" fill="#484848"/>
<path d="M165.19 132.6V133.76H161.97L159.66 131.27L165.2 132.61L165.19 132.6Z" fill="#484848"/>
<path d="M161.97 132.6V133.76L159.66 132.48V131.26L161.97 132.6Z" fill="#484848"/>
<path d="M162.24 131.6L160.66 130.68V129.95L162.24 129.03H164.93L166.51 129.95V130.68L164.93 131.6H162.24Z" fill="#484848"/>
<path d="M167.51 129.68V130.84L165.2 132.18L164.41 130.48L167.51 129.69V129.68Z" fill="#484848"/>
<path d="M165.19 130.96V132.18H161.97L159.66 129.69L165.2 130.97L165.19 130.96Z" fill="#484848"/>
<path d="M161.97 130.96V132.18L159.66 130.84V129.68L161.97 130.96Z" fill="#484848"/>
<path d="M162.23 129.96L160.66 129.09V128.32L162.23 127.45H164.94L166.51 128.32V129.09L164.94 129.96H162.23Z" fill="#484848"/>
<path d="M167.51 127.97V129.19L165.2 130.53L164.41 128.83L167.51 127.98V127.97Z" fill="#484848"/>
<path d="M165.19 129.31V130.53H161.97L159.66 127.97L165.2 129.31H165.19Z" fill="#484848"/>
<path d="M161.97 129.31V130.53L159.66 129.19V127.97L161.97 129.31Z" fill="#484848"/>
<path d="M162.24 128.31L160.66 127.4V126.68L162.23 125.81H164.94L166.51 126.68V127.4L164.93 128.31H162.24Z" fill="#484848"/>
<path d="M167.51 126.33V127.55L165.2 128.89L164.41 127.19L167.51 126.34V126.33Z" fill="#484848"/>
<path d="M165.19 127.67V128.89H161.97L159.66 126.39L165.2 127.67H165.19Z" fill="#484848"/>
<path d="M161.97 127.67V128.89L159.66 127.55V126.39L161.97 127.67Z" fill="#484848"/>
<path d="M162.23 126.67L160.66 125.8V125.08L162.24 124.17H164.93L166.51 125.08V125.8L164.94 126.67H162.23Z" fill="#484848"/>
<path d="M167.51 124.75V125.91L165.2 127.25L164.41 125.61L167.51 124.76V124.75Z" fill="#484848"/>
<path d="M165.19 126.09V127.25H161.97L159.66 124.76L165.2 126.1L165.19 126.09Z" fill="#484848"/>
<path d="M161.97 126.09V127.25L159.66 125.91V124.75L161.97 126.09Z" fill="#484848"/>
<path d="M162.24 125.09L160.66 124.17V123.44L162.24 122.52H164.93L166.51 123.44V124.17L164.93 125.09H162.24Z" fill="#484848"/>
<path d="M164.59 119.76V124.14L163.98 124.44L163.8 120L164.59 119.76Z" fill="#484848"/>
<path d="M163.98 120.06V124.44H163.19L162.58 119.75L163.98 120.06Z" fill="#484848"/>
<path d="M163.19 120.06V124.44L162.58 124.14V119.76L163.19 120.07V120.06Z" fill="#484848"/>
<path d="M162.58 119.27V119.76L163.19 120.07H163.98L164.59 119.76V119.27L163.98 118.97H163.19L162.58 119.27Z" fill="#484848"/>
<path d="M198.1 99.2901L197.77 98.9601V98.5101L198.1 98.1801H198.55L198.87 98.5101V98.9601L198.55 99.2901H198.1Z" fill="#484848"/>
<path d="M163.3 119.37L162.97 119.04V118.59L163.3 118.26H163.81L164.13 118.59V119.04L163.81 119.37H163.3Z" fill="#484848"/>
<path d="M199.35 98.52L224.51 94.86L251.78 81.61L251.9 81.87L224.58 95.18L199.39 98.79L199.35 98.52Z" fill="#484848"/>
<path d="M110 163.5L135.41 146.83L162.81 119.54L163 119.74L135.6 147.03L110.18 163.77L110 163.5Z" fill="#484848"/>
<path d="M264.9 66.87L217.75 40.91L216.22 38.9399L217.09 38.45L228.26 44.8699V44.84L248.49 56.5099L248.26 42.49L227.9 41.4799V41.6899L227.34 41.5L227.5 41.41L249.5 42.5099V57.0999L266.35 66.8399V68.7799L265.59 69.2099L264.91 66.86L264.9 66.87ZM263.07 43.2L266.34 43.36V43.83L265.03 44.57L263.07 43.1899V43.2Z" fill="#484848"/>
<path d="M215.72 41.1701V40.4301L225.88 46.2701V46.1801L247.54 58.6901L263.97 68.1801V69.0301L215.72 41.1601V41.1701Z" fill="#484848"/>
<path d="M182.72 60.37L184.24 61.22L184.67 59.21L182.72 58.6V60.36V60.37Z" fill="#484848"/>
<path d="M217.09 40.53V42.23L184.24 61.22V59.46L217.09 40.54V40.53Z" fill="#484848"/>
<path d="M184.24 59.45L182.72 58.6L215.57 39.67L217.09 40.52L184.24 59.44V59.45Z" fill="#484848"/>
<path d="M192.09 65.72L193.61 66.57L193.98 64.62L192.09 64.01V65.71V65.72Z" fill="#484848"/>
<path d="M226.46 45.88V47.58L193.61 66.57V64.87L226.46 45.88Z" fill="#484848"/>
<path d="M193.61 64.87L192.09 64.02L224.94 45.03L226.46 45.88L193.61 64.87Z" fill="#484848"/>
<path d="M213.68 78.2L215.14 79.05L215.57 77.1L213.68 76.49V78.19V78.2Z" fill="#484848"/>
<path d="M248 58.36V60.12L215.15 79.05V77.35L248 58.36Z" fill="#484848"/>
<path d="M215.14 77.34L213.68 76.49L246.47 57.5L247.99 58.35L215.14 77.34Z" fill="#484848"/>
<path d="M213.68 63.71L215.14 64.56L215.57 62.61L213.68 62V63.7V63.71Z" fill="#484848"/>
<path d="M248 43.88V45.58L215.15 64.57V62.87L248 43.88Z" fill="#484848"/>
<path d="M215.14 62.86L213.68 62.01L246.47 43.02L247.99 43.87L215.14 62.86Z" fill="#484848"/>
<path d="M229.98 87.01L182.83 61.05L181.3 59.08L182.16 58.59L193.33 65.08V65.04L213.56 76.71L213.33 62.69L192.97 61.68V61.89L192.41 61.7L192.57 61.61L214.57 62.71V77.3L231.42 87.04V88.92L230.66 89.35L229.98 87V87.01ZM228.15 63.4L231.42 63.56V64.03L230.11 64.77L228.15 63.39V63.4Z" fill="#484848"/>
<path d="M180.8 61.25V60.52L190.96 66.42L212.56 78.89V78.85L229.06 88.38V89.11L180.81 61.24L180.8 61.25ZM190.96 63.05V63L212.2 64.06V64.08L190.96 63.05Z" fill="#484848"/>
<path d="M223.78 39.92V41.14L221.47 42.48L220.68 40.78L223.78 39.93V39.92Z" fill="#484848"/>
<path d="M221.47 41.26V42.48H218.25L215.94 39.92L221.48 41.26H221.47Z" fill="#484848"/>
<path d="M218.25 41.26V42.48L215.94 41.14V39.92L218.25 41.26Z" fill="#484848"/>
<path d="M218.51 40.26L216.93 39.34V38.62L218.5 37.76H221.21L222.78 38.62V39.34L221.2 40.26H218.51Z" fill="#484848"/>
<path d="M223.78 38.34V39.5L221.47 40.84L220.68 39.14L223.78 38.35V38.34Z" fill="#484848"/>
<path d="M221.47 39.62V40.84H218.25L215.94 38.35L221.48 39.63L221.47 39.62Z" fill="#484848"/>
<path d="M218.25 39.62V40.84L215.94 39.5V38.34L218.25 39.62Z" fill="#484848"/>
<path d="M218.5 38.62L216.93 37.75V37.03L218.51 36.11H221.2L222.78 37.03V37.75L221.21 38.62H218.5Z" fill="#484848"/>
<path d="M223.78 36.7V37.86L221.47 39.2L220.68 37.5L223.78 36.7099V36.7Z" fill="#484848"/>
<path d="M221.47 37.9699V39.1899H218.25L215.94 36.6899L221.48 37.9699H221.47Z" fill="#484848"/>
<path d="M218.25 37.9699V39.1899L215.94 37.8499V36.6899L218.25 37.9699Z" fill="#484848"/>
<path d="M218.5 36.97L216.93 36.11V35.39L218.51 34.47H221.2L222.78 35.39V36.11L221.21 36.97H218.5Z" fill="#484848"/>
<path d="M223.78 35.05V36.21L221.47 37.55L220.68 35.91L223.78 35.0601V35.05Z" fill="#484848"/>
<path d="M221.47 36.3301V37.5501H218.25L215.94 35.0601L221.48 36.3401L221.47 36.3301Z" fill="#484848"/>
<path d="M218.25 36.3301V37.55L215.94 36.21V35.05L218.25 36.3301Z" fill="#484848"/>
<path d="M218.5 35.33L216.93 34.46V33.74L218.51 32.83H221.2L222.78 33.74V34.46L221.21 35.33H218.5Z" fill="#484848"/>
<path d="M223.78 33.41V34.63L221.47 35.91L220.68 34.27L223.78 33.42V33.41Z" fill="#484848"/>
<path d="M221.47 34.75V35.91H218.25L215.94 33.42L221.48 34.76L221.47 34.75Z" fill="#484848"/>
<path d="M218.25 34.75V35.91L215.94 34.63V33.41L218.25 34.75Z" fill="#484848"/>
<path d="M218.51 33.7501L216.93 32.8301V32.1001L218.51 31.1801H221.2L222.78 32.1001V32.8301L221.2 33.7501H218.51Z" fill="#484848"/>
<path d="M220.86 28.42V32.8L220.25 33.1L220.07 28.66L220.86 28.42Z" fill="#484848"/>
<path d="M220.25 28.79V33.11H219.46L218.85 28.42L220.25 28.79Z" fill="#484848"/>
<path d="M219.46 28.7901V33.1101L218.85 32.8101V28.4301L219.46 28.8001V28.7901Z" fill="#484848"/>
<path d="M218.85 27.99V28.42L219.46 28.79H220.25L220.86 28.42V27.99L220.25 27.62H219.46L218.85 27.99Z" fill="#484848"/>
<path d="M188.98 60V61.22L186.67 62.56L185.88 60.86L188.98 60.01V60Z" fill="#484848"/>
<path d="M186.67 61.34V62.56H183.45L181.14 60L186.68 61.34H186.67Z" fill="#484848"/>
<path d="M183.45 61.34V62.56L181.14 61.22V60L183.45 61.34Z" fill="#484848"/>
<path d="M183.71 60.34L182.13 59.43V58.75L183.71 57.84H186.4L187.98 58.75V59.43L186.4 60.34H183.71Z" fill="#484848"/>
<path d="M188.98 58.42V59.58L186.67 60.92L185.88 59.22L188.98 58.43V58.42Z" fill="#484848"/>
<path d="M186.67 59.7001V60.9201H183.45L181.14 58.4301L186.68 59.7101L186.67 59.7001Z" fill="#484848"/>
<path d="M183.45 59.7V60.92L181.14 59.58V58.42L183.45 59.7Z" fill="#484848"/>
<path d="M183.7 58.6999L182.13 57.8299V57.1099L183.71 56.1899H186.4L187.98 57.1099V57.8299L186.41 58.6999H183.7Z" fill="#484848"/>
<path d="M188.98 56.78V57.94L186.67 59.28L185.88 57.58L188.98 56.79V56.78Z" fill="#484848"/>
<path d="M186.67 58.05V59.27H183.45L181.14 56.78L186.68 58.06L186.67 58.05Z" fill="#484848"/>
<path d="M183.45 58.05V59.27L181.14 57.93V56.77L183.45 58.05Z" fill="#484848"/>
<path d="M183.7 57.05L182.13 56.19V55.4701L183.71 54.55H186.4L187.98 55.4701V56.19L186.41 57.05H183.7Z" fill="#484848"/>
<path d="M188.98 55.13V56.35L186.67 57.63L185.88 55.99L188.98 55.14V55.13Z" fill="#484848"/>
<path d="M186.67 56.47V57.63H183.45L181.14 55.14L186.68 56.48L186.67 56.47Z" fill="#484848"/>
<path d="M183.45 56.47V57.63L181.14 56.35V55.13L183.45 56.47Z" fill="#484848"/>
<path d="M183.71 55.47L182.13 54.56V53.82L183.71 52.91H186.4L187.98 53.82V54.56L186.4 55.47H183.71Z" fill="#484848"/>
<path d="M188.98 53.49V54.71L186.67 55.99L185.88 54.35L188.98 53.5V53.49Z" fill="#484848"/>
<path d="M186.67 54.83V55.99H183.45L181.14 53.5L186.68 54.84L186.67 54.83Z" fill="#484848"/>
<path d="M183.45 54.83V55.99L181.14 54.71V53.49L183.45 54.83Z" fill="#484848"/>
<path d="M183.71 53.83L182.13 52.91V52.18L183.71 51.27H186.4L187.98 52.18V52.91L186.4 53.83H183.71Z" fill="#484848"/>
<path d="M186.06 48.5V52.88L185.45 53.18L185.27 48.74L186.06 48.5Z" fill="#484848"/>
<path d="M185.45 48.87V53.19H184.66L184.05 48.5L185.45 48.87Z" fill="#484848"/>
<path d="M184.66 48.87V53.19L184.05 52.89V48.51L184.66 48.88V48.87Z" fill="#484848"/>
<path d="M184.05 48.08V48.51L184.66 48.88H185.45L186.06 48.51V48.08L185.45 47.71H184.66L184.05 48.08Z" fill="#484848"/>
<path d="M219.51 28.45L219.18 28.13V27.66L219.53 27.29H219.94L220.29 27.66V28.13L219.96 28.45H219.51Z" fill="#484848"/>
<path d="M184.71 48.5401L184.39 48.2101V47.7601L184.71 47.4301H185.16L185.49 47.7601V48.2101L185.16 48.5401H184.71Z" fill="#484848"/>
<path d="M220.68 27.59L243.11 24.83L273.12 10.65L273.26 10.96L243.27 25.11H243.19L220.71 27.91L220.68 27.59Z" fill="#484848"/>
<path d="M9.5 139L155.73 76.7299L184.11 48.5699L184.34 48.7999L156.03 76.9499L155.95 76.9899L0.5 143.5L9.5 139Z" fill="#484848"/>
<path d="M234.01 64.25L252.76 43.44L245.96 41.33L246.17 40.65L253.24 42.87L266.55 28.11L258.77 26.4L246.08 40.16L245.51 39.66L257.99 26.16L254.15 25.33L254.49 23.74L264.08 12.41L262.03 9.44L262.69 8.99L264.57 11.74L266.42 9.55L267.01 10.04L266.57 10.54L264.97 12.4L267.34 15.83L269.69 12.3L268.32 10.85V9.56H268.33L270.19 11.61L272.18 8.5L272.81 8.92L270.68 12.2L281.1 23.7L280.44 24.28L270.74 13.53H269.75L269.39 13.99L267.76 16.52L275.97 25.55L280.43 24.55L280.6 25.28L276.68 26.17L288.65 39.34L288.04 39.88L275.76 26.39L268.11 28.11L281.63 42.39L287.98 40.3L288.21 41.03L283.73 42.54L284.05 44.49L283.38 44.18L301.12 62.92L300.57 63.44L281.47 43.32L268.44 47.64L268.21 46.91L280.8 42.73L267.3 28.45L254.09 43.14L266.51 46.99L266.3 47.66L253.56 43.69L234.58 64.78L233.99 64.24L234.01 64.25ZM259.41 25.73L267.27 27.5L275.14 25.81L268.06 17.99L267.24 17.18L259.41 25.73ZM254.67 24.73L258.56 25.56L266.85 16.58L264.46 13.12L254.67 24.72V24.73Z" fill="#484848"/>
<path d="M320.58 376.22H321.41L321.64 376.35V376.83L320.58 376.22ZM213.77 376.62L213 376.14L242.29 331.13L222.47 319.72V319.08L222.52 319.05L247.77 273.01L233.34 258.4L233.87 257.87L248.1 272.29L266.95 237.91L236.21 255.69V255.16L238.37 253.71L267.27 237.04L298.88 255.31V255.63L268.09 237.86L286.94 272.29L301.17 257.87L301.7 258.4L287.27 273.01L312.07 318.33L311.72 318.51V319.12L311.3 318.88L291.97 330.75L321.02 374.18L319.19 375.43L267.71 345.66L213.77 376.84V376.63V376.62ZM268.84 344.91V346.05L269.34 346.4L318.01 374.51L319.34 373.09L291.31 331.16L268.84 344.92V344.91ZM215.59 372.86L216.93 374.27L266.67 345.47L242.5 331.5H244.09L267.37 344.99L290.91 330.5L266.68 294.3L242.47 331.47H242.46L215.6 372.85L215.59 372.86ZM222.76 319.15L242.24 330.44L263.5 297.76L262.16 296.35L222.76 319.15ZM269.26 296.67L291.71 330.29L292.55 329.46L310.61 318.36L270.59 295.25L269.26 296.67ZM267.5 293.05L311.2 318.31L286.69 273.59L267.5 293.05ZM247.19 274.76L223.33 318.3L267.09 293.05L248.55 274.24H247.54L247.2 274.76H247.19ZM248.29 272.86L267.29 292.12L286.29 272.86L267.29 238.17L248.29 272.86ZM299.13 253.43L284.04 227.37L268.78 235.16L267.94 234.66L283.64 226.68L267.63 199.09L298.89 217.13V217.56L268.62 200.11L283.74 226.24H284.56L284.84 226.13L298.9 218.94V219.03L299.21 219.63L284.38 227.13L299.5 253.15L299.44 253.44H299.12L299.13 253.43ZM251.05 227.38L251.17 227.18L236.33 219.67L236.63 219.07L251.14 226.48L266.7 199.65L236.32 217.23L236.26 216.74L267.29 198.87L267.48 198.98L251.42 226.67L267.12 234.65L266.28 235.15L251.05 227.38ZM299.21 215.46L284.04 189.28L268.78 197.07L268 196.6L283.65 188.65L267.53 160.87L298.95 179.03V179.55L268.48 161.93L283.92 188.51L298.94 180.86V180.98L299.25 181.58L284.43 189.15L299.55 215.17L299.49 215.46H299.19H299.21ZM251.65 189.6H250.94L251.16 189.22L236.32 181.64L236.62 181.04L251.19 188.45L266.8 161.51L236.16 179.19V178.9L238.64 177.24H238.63L267.29 160.71L267.53 160.85L251.41 188.63L267.06 196.58L266.28 197.05L251.65 189.59V189.6ZM299.17 177.19L284.05 151.07L268.79 158.86L268.01 158.39L283.66 150.44L267.65 122.85L298.97 140.95V141.35L268.64 123.87L283.76 149.99H284.58L284.86 149.88L298.98 142.66V142.72L299.3 143.32L284.48 150.89L299.6 176.91L299.54 177.2H299.2L299.17 177.19ZM251.03 151.07L251.1 150.94L236.26 143.37L236.55 142.79L251.13 150.24L266.69 123.41L236.1 141.11V140.75L237.61 139.74L267.28 122.62L267.47 122.73L251.41 150.42L267.06 158.37L266.28 158.84L251.03 151.06V151.07ZM299.14 139.03L284.05 112.97L268.79 120.76L267.95 120.26L283.65 112.28L267.69 84.78L298.95 102.83V103.2L268.62 85.7201L283.74 111.84H284.56L284.84 111.73L298.96 104.51V104.63L299.27 105.23L284.45 112.73L299.57 138.75L299.51 139.04H299.13L299.14 139.03ZM235.93 138.8L251.05 112.78L236.21 105.27L236.51 104.67L251.14 112.15L266.7 85.32L236.25 102.94L236.18 102.52L267.29 84.5401L267.45 84.63L251.41 112.27L267.11 120.25L266.27 120.75L251.02 112.97L235.94 138.9L235.92 138.8H235.93ZM299.19 101.06L284.06 74.9401L268.8 82.7301L267.96 82.2301L283.66 74.25L267.54 46.4701L251.42 74.25L267.12 82.2301L266.28 82.7301L251.22 75.0401L250.62 75.6501L250.5 75.82L235.91 101L235.87 100.83L250.99 74.81L236.15 67.2301L236.43 66.6601H236.58L251.2 74.1L266.81 47.16L235.99 64.9401V64.53L267.54 46.3L299.03 64.4701V65.1101L268.5 47.4501L283.94 74.03L299.03 66.35V66.56L299.34 67.1601L284.52 74.7301L299.64 100.75L299.58 101.04H299.19V101.06Z" fill="#484848"/>
<path d="M301.54 257.58L302.26 257.16L302.95 257.57L302.25 258.2L301.54 257.58Z" fill="#484848"/>
<path d="M337.72 472.36L301.17 259.33L301.36 259.44L337.92 472.47L337.72 472.36Z" fill="#484848"/>
<path d="M303.37 259.32L303.9 259L340.52 472.48L340 472.78L303.37 259.32Z" fill="#484848"/>
<path d="M267.98 343.49V342.66L268.86 342.96L268.66 343.89L267.98 343.49Z" fill="#484848"/>
<path d="M270.35 343.24L311.71 319.37L311.82 319.84L270.35 343.73V343.24Z" fill="#484848"/>
<path d="M268.96 341.27L309.98 317.59L310.38 317.82L269.36 341.5L268.96 341.27Z" fill="#484848"/>
<path d="M268.16 407.32V406.53L269.04 406.81L268.84 407.73L268.16 407.32Z" fill="#484848"/>
<path d="M270.53 407.07L321.69 377.54L321.79 377.95L270.53 407.56V407.07Z" fill="#484848"/>
<path d="M269.17 405.14L319.96 375.77L320.36 376L269.53 405.34L269.17 405.14Z" fill="#484848"/>
<path d="M269.66 405.43L311.96 320.64L312.6 320.96L270.36 405.77L269.66 405.43Z" fill="#484848"/>
<path d="M301.539 259.591L269.659 341.613L270.405 341.903L302.285 259.881L301.539 259.591Z" fill="#484848"/>
<path d="M270.639 278.038L270.09 278.62L311.305 317.486L311.854 316.904L270.639 278.038Z" fill="#484848"/>
<path d="M231.73 257.57L232.43 257.16L233.14 257.58L232.43 258.2L231.73 257.57Z" fill="#484848"/>
<path d="M194.16 472.48L230.79 259L231.32 259.32L194.69 472.78L194.16 472.48Z" fill="#484848"/>
<path d="M233.33 259.44L233.51 259.33L196.9 472.37L196.77 472.44L233.33 259.44Z" fill="#484848"/>
<path d="M265.63 406.81L266.52 406.53V407.32L265.81 407.73L265.63 406.81Z" fill="#484848"/>
<path d="M212.66 377.87L212.81 377.47L264.09 407.07V407.56L212.66 377.87Z" fill="#484848"/>
<path d="M214.29 376.01L214.72 375.76L265.49 405.13L265.1 405.35L214.29 376.01Z" fill="#484848"/>
<path d="M265.83 342.96L266.71 342.66V343.49L266.02 343.89L265.83 342.96Z" fill="#484848"/>
<path d="M222.7 319.7L222.85 319.29L264.33 343.24V343.73L222.7 319.7Z" fill="#484848"/>
<path d="M224.3 317.82L224.7 317.59L265.72 341.27L265.33 341.5L224.3 317.82Z" fill="#484848"/>
<path d="M266.61 277.74L267.28 277.36L267.95 277.74L267.28 278.33L266.61 277.74Z" fill="#484848"/>
<path d="M265.91 513.92V279.3L266.28 279.52V514.13L265.91 513.92Z" fill="#484848"/>
<path d="M268.28 279.52L268.65 279.3V513.92L268.28 514.13V279.52Z" fill="#484848"/>
<path d="M301.54 64.13L302.26 63.72L302.95 64.13L302.25 64.75L301.54 64.13Z" fill="#484848"/>
<path d="M300.83 256.82V65.6899L301.26 65.9399V257.05L300.83 256.82Z" fill="#484848"/>
<path d="M303.26 65.93L303.64 65.71V256.82L303.26 257.03V65.93Z" fill="#484848"/>
<path d="M231.73 64.13L232.43 63.72L233.14 64.13L232.43 64.75L231.73 64.13Z" fill="#484848"/>
<path d="M231.05 256.82V65.71L231.42 65.93V257.03L231.05 256.82Z" fill="#484848"/>
<path d="M233.42 65.9399L233.85 65.6899V256.82L233.42 257.05V65.9399Z" fill="#484848"/>
<path d="M265.45 275.04L266.31 274.75L266.33 275.56L265.63 275.95L265.45 275.04Z" fill="#484848"/>
<path d="M233.43 258.18L233.44 257.72L263.91 275.33V275.76L233.43 258.18Z" fill="#484848"/>
<path d="M234.46 256L234.86 255.77L265.3 273.36L264.9 273.59L234.46 256Z" fill="#484848"/>
<path d="M234.84 221L234.98 220.47L237.29 221.81L266.34 271.37V272.77L265.27 273.39L234.84 221Z" fill="#484848"/>
<path d="M263.63 272.86L234.4 222.91L234.92 223.21L263.91 272.77V273.02L263.63 272.86Z" fill="#484848"/>
<path d="M233.48 255.48V255.1L263.93 239.58L264.29 240.29L233.91 255.72L233.48 255.48Z" fill="#484848"/>
<path d="M265.45 236.89L266.31 236.59L266.33 237.42L265.62 237.83L265.45 236.89Z" fill="#484848"/>
<path d="M233.43 220.08L233.44 219.56L263.91 237.17V237.66L233.43 220.08Z" fill="#484848"/>
<path d="M234.46 217.84L234.86 217.61L265.3 235.2L264.9 235.44L234.46 217.84Z" fill="#484848"/>
<path d="M234.84 182.85L234.98 182.35L237.29 183.66L266.34 233.21V234.62L265.27 235.23L234.84 182.85Z" fill="#484848"/>
<path d="M263.63 234.7L234.36 184.75L234.92 185.06L263.91 234.62V234.87L263.63 234.7Z" fill="#484848"/>
<path d="M233.48 217.29V216.94L263.93 201.42L264.28 202.09L233.92 217.56L233.48 217.29Z" fill="#484848"/>
<path d="M265.45 198.75L266.31 198.47L266.33 199.27L265.62 199.67L265.45 198.75Z" fill="#484848"/>
<path d="M233.43 181.93L233.44 181.47L263.91 199.08V199.51L233.43 181.93Z" fill="#484848"/>
<path d="M234.46 179.75L234.86 179.52L265.3 197.11L264.9 197.34L234.46 179.75Z" fill="#484848"/>
<path d="M234.84 144.7L234.98 144.21L237.29 145.56L266.34 195.12V196.52L265.27 197.14L234.84 144.7Z" fill="#484848"/>
<path d="M263.63 196.56L234.41 146.66L234.92 146.96L263.91 196.52V196.73L263.63 196.56Z" fill="#484848"/>
<path d="M233.48 179.18V178.79L263.93 163.27L264.29 163.99L233.91 179.42L233.48 179.18Z" fill="#484848"/>
<path d="M265.45 160.64L266.31 160.34L266.33 161.18L265.62 161.58L265.45 160.64Z" fill="#484848"/>
<path d="M233.43 143.77L233.44 143.32L263.91 160.92V161.41L233.43 143.77Z" fill="#484848"/>
<path d="M234.46 141.6L234.86 141.36L265.3 158.96L264.9 159.19L234.46 141.6Z" fill="#484848"/>
<path d="M234.84 106.54L234.98 106.06L237.29 107.41L266.34 156.97V158.37L265.27 158.98L234.84 106.54Z" fill="#484848"/>
<path d="M263.63 158.46L234.35 108.48L234.92 108.81L263.91 158.37V158.62L263.63 158.46Z" fill="#484848"/>
<path d="M233.48 141.02V140.64L263.93 125.12L264.29 125.83L233.91 141.26L233.48 141.02Z" fill="#484848"/>
<path d="M265.45 122.5L266.31 122.22L266.33 123.02L265.62 123.43L265.45 122.5Z" fill="#484848"/>
<path d="M233.43 105.68L233.44 105.16L263.91 122.77V123.26L233.43 105.68Z" fill="#484848"/>
<path d="M234.46 103.44L234.86 103.21L265.27 120.84L264.91 121.04L234.46 103.44Z" fill="#484848"/>
<path d="M234.84 68.45L234.98 67.95L237.29 69.26L266.34 118.81V120.21L265.27 120.83L234.84 68.45Z" fill="#484848"/>
<path d="M263.63 120.3L234.36 70.34L234.92 70.66L263.91 120.21V120.46L263.63 120.3Z" fill="#484848"/>
<path d="M233.48 102.89V102.54L263.93 87.02L264.28 87.68L233.92 103.16L233.48 102.89Z" fill="#484848"/>
<path d="M265.45 84.39L266.31 84.09L266.33 84.87L265.62 85.27L265.45 84.39Z" fill="#484848"/>
<path d="M233.43 67.5299L233.44 67.0699L263.91 84.6799V85.1099L233.43 67.5299Z" fill="#484848"/>
<path d="M234.46 65.35L234.86 65.12L265.3 82.71L264.9 82.94L234.46 65.35Z" fill="#484848"/>
<path d="M268.28 275.57V274.78L269.17 275.07L269 275.98L268.28 275.57Z" fill="#484848"/>
<path d="M270.71 275.39L301.26 257.74V258.17L270.71 275.82V275.39Z" fill="#484848"/>
<path d="M269.28 273.41L299.83 255.76L300.26 256.01L269.71 273.66L269.28 273.41Z" fill="#484848"/>
<path d="M268.28 272.83V271.43L296.91 222.11L299.25 220.75L299.41 221.26L269.35 273.45L268.28 272.83Z" fill="#484848"/>
<path d="M270.66 272.82L299.34 223.46L299.91 223.13L270.99 272.87L270.67 273.06L270.66 272.82Z" fill="#484848"/>
<path d="M270.39 240.24L270.76 239.52L301.26 255.04V255.43L300.77 255.72L270.39 240.24Z" fill="#484848"/>
<path d="M268.28 237.48V236.65L269.18 236.96L269 237.89L268.28 237.48Z" fill="#484848"/>
<path d="M270.71 237.23L301.26 219.58V220.07L270.71 237.72V237.23Z" fill="#484848"/>
<path d="M269.28 235.25L299.83 217.61L300.26 217.85L269.71 235.5L269.28 235.25Z" fill="#484848"/>
<path d="M268.28 234.68V233.27L296.91 183.96L299.25 182.59L299.41 183.11L269.35 235.29L268.28 234.68Z" fill="#484848"/>
<path d="M270.62 234.73L299.34 185.36L299.87 185.05L270.98 234.78L270.59 235.03L270.62 234.73Z" fill="#484848"/>
<path d="M270.4 202.09L270.75 201.42L301.26 216.94V217.28L300.77 217.57L270.4 202.09Z" fill="#484848"/>
<path d="M268.28 199.32V198.53L269.17 198.82L269 199.73L268.28 199.32Z" fill="#484848"/>
<path d="M270.71 199.08L301.26 181.49V181.92L270.71 199.57V199.08Z" fill="#484848"/>
<path d="M269.32 197.14L299.83 179.51L300.26 179.76L269.7 197.35L269.32 197.14Z" fill="#484848"/>
<path d="M268.28 196.52V195.18L296.91 145.81L299.25 144.48L299.41 145.02L269.35 197.14L268.28 196.52Z" fill="#484848"/>
<path d="M270.66 196.57L299.34 147.2L299.92 146.87L270.99 196.61L270.67 196.8L270.66 196.57Z" fill="#484848"/>
<path d="M270.39 163.99L270.76 163.27L301.26 178.79V179.16L300.79 179.42L270.39 163.99Z" fill="#484848"/>
<path d="M268.28 161.22V160.4L269.17 160.71L269 161.61L268.28 161.22Z" fill="#484848"/>
<path d="M270.71 160.98L301.26 143.34V143.77L270.71 161.41V160.98Z" fill="#484848"/>
<path d="M269.28 159.01L299.83 141.36L300.26 141.61L269.71 159.25L269.28 159.01Z" fill="#484848"/>
<path d="M268.28 158.43V157.03L296.91 107.71L299.25 106.34L299.41 106.86L269.35 159.04L268.28 158.43Z" fill="#484848"/>
<path d="M270.66 158.41L299.34 109.11L299.87 108.81L270.99 158.47L270.67 158.66L270.66 158.41Z" fill="#484848"/>
<path d="M270.4 125.84L270.75 125.17L301.26 140.64V141.01L300.79 141.27L270.4 125.84Z" fill="#484848"/>
<path d="M268.28 123.08V122.25L269.18 122.56L269 123.49L268.28 123.08Z" fill="#484848"/>
<path d="M270.71 122.83L301.26 105.18V105.67L270.71 123.32V122.83Z" fill="#484848"/>
<path d="M269.28 120.85L299.83 103.21L300.26 103.45L269.71 121.1L269.28 120.85Z" fill="#484848"/>
<path d="M268.28 120.28V118.87L296.91 69.56L299.24 68.2L299.42 68.76L269.35 120.89L268.28 120.28Z" fill="#484848"/>
<path d="M270.66 120.26L299.34 70.96L299.92 70.62L270.99 120.36L270.67 120.55L270.66 120.26Z" fill="#484848"/>
<path d="M270.4 87.68L270.75 87.02L301.26 102.54V102.88L300.77 103.16L270.4 87.68Z" fill="#484848"/>
<path d="M268.28 84.92V84.13L269.17 84.42L269 85.33L268.28 84.92Z" fill="#484848"/>
<path d="M270.71 84.68L301.26 67.09V67.52L270.71 85.17V84.68Z" fill="#484848"/>
<path d="M269.32 82.74L299.83 65.11L300.26 65.36L269.7 82.95L269.32 82.74Z" fill="#484848"/>
<path d="M266.61 84.29L267.28 83.91L267.95 84.29L267.28 84.89L266.61 84.29Z" fill="#484848"/>
<path d="M265.91 276.98V85.85L266.28 86.07V277.2L265.91 276.98Z" fill="#484848"/>
<path d="M268.28 86.07L268.65 85.85V276.98L268.28 277.2V86.07Z" fill="#484848"/>
<path d="M266.59 9.97006L267.28 9.56006L267.97 9.97006L267.28 10.5801L266.59 9.97006Z" fill="#484848"/>
<path d="M265.91 83.58V11.55L266.28 11.77V83.79L265.91 83.58Z" fill="#484848"/>
<path d="M268.28 11.77L268.65 11.55V83.58L268.28 83.79V11.77Z" fill="#484848"/>
<path d="M262.03 7.34994L262.72 6.93994L263.41 7.34994L262.72 7.96994L262.03 7.34994Z" fill="#484848"/>
<path d="M231.38 63.5799L260.74 8.56995L261.39 8.95995L232.03 63.9699L231.38 63.5799Z" fill="#484848"/>
<path d="M262.72 8.58005L265.09 7.18005L234.85 63.9601L232.42 65.3601L262.72 8.58005Z" fill="#484848"/>
<path d="M271.16 7.34994L271.85 6.93994L272.57 7.34994L271.85 7.97994L271.16 7.34994Z" fill="#484848"/>
<path d="M302.26 65.3601L299.83 63.9601L269.47 7.18005L271.84 8.58005L302.26 65.3601Z" fill="#484848"/>
<path d="M273.18 8.97006L273.88 8.56006L303.3 63.5801L302.65 63.9701L273.18 8.97006Z" fill="#484848"/>
<path d="M262.34 2.86L267.28 0L272.27 2.86L267.28 5.72L262.34 2.86Z" fill="#484848"/>
<path d="M261.35 6.60998V4.59998L266.28 7.45998V9.45998L261.35 6.60998Z" fill="#484848"/>
<path d="M268.28 7.45997L273.28 4.58997V6.59997L268.28 9.46997V7.45997Z" fill="#484848"/>
<path d="M233.23 64.62L264.55 51.51L264.88 52.28L233.52 65.32L233.23 64.62Z" fill="#484848"/>
<path d="M253.977 25.4753L253.252 25.8121L264.834 50.7649L265.56 50.4281L253.977 25.4753Z" fill="#484848"/>
<path d="M245.498 40.1728L244.769 40.5029L264.183 83.3608L264.912 83.0307L245.498 40.1728Z" fill="#484848"/>
<path d="M265.083 32.0911L245.539 38.6951L245.795 39.453L265.34 32.849L265.083 32.0911Z" fill="#484848"/>
<path d="M258.893 15.2284L258.164 15.5588L265.357 31.4138L266.085 31.0834L258.893 15.2284Z" fill="#484848"/>
<path d="M265.034 19.2035L253.992 24.0297L254.313 24.7627L265.354 19.9366L265.034 19.2035Z" fill="#484848"/>
<path d="M270.128 51.5272L269.82 52.2656L301.166 65.3327L301.474 64.5943L270.128 51.5272Z" fill="#484848"/>
<path d="M280.691 25.498L269.143 50.4669L269.869 50.8027L281.417 25.8338L280.691 25.498Z" fill="#484848"/>
<path d="M289.259 40.1521L269.822 82.9998L270.551 83.3302L289.988 40.4826L289.259 40.1521Z" fill="#484848"/>
<path d="M269.648 32.0971L269.393 32.8553L288.947 39.4321L289.202 38.6738L269.648 32.0971Z" fill="#484848"/>
<path d="M275.774 15.153L268.633 31.1625L269.364 31.4884L276.505 15.4789L275.774 15.153Z" fill="#484848"/>
<path d="M269.32 19.76L269.62 19.04L280.7 24L280.39 24.72L269.32 19.76Z" fill="#484848"/>
<path d="M270.06 346.32L270.46 345.62L321.74 375.21L321.34 375.91L270.06 346.32Z" fill="#484848"/>
<path d="M221.96 320.97L222.66 320.63L264.91 405.44L264.26 405.76L221.96 320.97Z" fill="#484848"/>
<path d="M233.075 259.525L232.33 259.815L264.196 341.843L264.941 341.553L233.075 259.525Z" fill="#484848"/>
<path d="M263.92 277.997L222.678 316.834L223.226 317.416L264.468 278.579L263.92 277.997Z" fill="#484848"/>
<path d="M264.223 345.547L212.961 375.179L213.361 375.872L264.623 346.24L264.223 345.547Z" fill="#484848"/>
<path d="M351.99 283.61L304.38 257.39L303.54 256L304.52 255.45L320.26 264.52L320.62 251.8L305.38 234.95L303.61 232.14L304.37 231.71L343.67 275.13V276.48H340.92L344.11 278.35L353.77 283.9V285.78L352.94 286.25L351.99 283.6V283.61ZM321.52 265.29L339.48 275.68L340.72 274.14L321.52 252.93V265.29Z" fill="#484848"/>
<path d="M303.2 258.11V257.37L319.21 266.6V266.62L341.71 279.65L351.45 285.25V285.98L303.2 258.11Z" fill="#484848"/>
<path d="M307.98 299.03L309.44 299.88L309.87 297.93L307.98 297.32V299.02V299.03Z" fill="#484848"/>
<path d="M342.29 279.19V280.89L309.44 299.88V298.18L342.29 279.19Z" fill="#484848"/>
<path d="M309.44 298.18L307.98 297.33L340.83 278.34L342.29 279.19L309.44 298.18Z" fill="#484848"/>
<path d="M317.59 304.57L319.11 305.48L319.48 303.53L317.59 302.86V304.56V304.57Z" fill="#484848"/>
<path d="M351.97 284.79V286.49L319.12 305.48V303.71L351.97 284.79Z" fill="#484848"/>
<path d="M319.11 303.71L317.59 302.86L350.44 283.94L351.96 284.79L319.11 303.71Z" fill="#484848"/>
<path d="M285.78 286.19L287.24 287.04L287.61 285.09L285.79 284.48V286.18L285.78 286.19Z" fill="#484848"/>
<path d="M320.09 266.35V268.05L287.24 287.04V285.34L320.09 266.35Z" fill="#484848"/>
<path d="M287.24 285.34L285.78 284.49L318.57 265.5L320.09 266.35L287.24 285.34Z" fill="#484848"/>
<path d="M285.78 271.89L287.24 272.74L287.61 270.79L285.79 270.12V271.89H285.78Z" fill="#484848"/>
<path d="M320.09 252.05V253.75L287.24 272.74V270.98L320.09 252.05Z" fill="#484848"/>
<path d="M287.24 270.98L285.78 270.13L318.57 251.14L320.09 252.05L287.24 270.98Z" fill="#484848"/>
<path d="M317.19 303.75L269.58 277.53L268.74 276.15L269.72 275.6L285.46 284.67L285.82 271.94L270.52 255.09L268.75 252.28L269.51 251.85L308.81 295.27V298.2L318.97 304.04V305.92L318.14 306.39L317.2 303.74L317.19 303.75ZM286.72 285.37L304.68 295.76L305.92 294.22L288.46 274.99L288.72 275.66L286.72 275.6V285.37Z" fill="#484848"/>
<path d="M268.28 278.25V277.51L284.29 286.74V286.77L306.79 299.79L316.53 305.39V306.12L268.28 278.25Z" fill="#484848"/>
<path d="M354.04 281.56V282.78L351.73 284.12L350.88 282.42L354.04 281.57V281.56Z" fill="#484848"/>
<path d="M351.72 282.9V284.12H348.43L346.12 281.56L351.72 282.9Z" fill="#484848"/>
<path d="M348.44 282.9V284.12L346.13 282.78V281.56L348.44 282.9Z" fill="#484848"/>
<path d="M348.71 281.9L347.13 280.99V280.32L348.71 279.4H351.46L353.04 280.32V280.99L351.46 281.9H348.71Z" fill="#484848"/>
<path d="M354.04 279.98V281.14L351.73 282.48L350.88 280.78L354.04 279.99V279.98Z" fill="#484848"/>
<path d="M351.72 281.32V282.48H348.43L346.12 279.99L351.72 281.33V281.32Z" fill="#484848"/>
<path d="M348.44 281.32V282.48L346.13 281.14V279.98L348.44 281.32Z" fill="#484848"/>
<path d="M348.71 280.32L347.13 279.41V278.67L348.71 277.76H351.46L353.04 278.67V279.41L351.46 280.32H348.71Z" fill="#484848"/>
<path d="M354.04 278.34V279.5L351.73 280.84L350.88 279.14L354.04 278.35V278.34Z" fill="#484848"/>
<path d="M351.72 279.68V280.84H348.43L346.12 278.34L351.72 279.68Z" fill="#484848"/>
<path d="M348.44 279.68V280.84L346.13 279.5V278.34L348.44 279.68Z" fill="#484848"/>
<path d="M348.71 278.68L347.13 277.76V277.03L348.71 276.11H351.46L353.04 277.03V277.76L351.46 278.68H348.71Z" fill="#484848"/>
<path d="M354.04 276.7V277.86L351.73 279.2L350.88 277.56L354.04 276.71V276.7Z" fill="#484848"/>
<path d="M351.72 278.04V279.2H348.43L346.12 276.71L351.72 278.05V278.04Z" fill="#484848"/>
<path d="M348.44 278.04V279.2L346.13 277.86V276.7L348.44 278.04Z" fill="#484848"/>
<path d="M348.71 277.04L347.13 276.12V275.39L348.71 274.47H351.46L353.04 275.39V276.12L351.46 277.04H348.71Z" fill="#484848"/>
<path d="M354.04 275.05V276.27L351.73 277.55L350.88 275.91L354.04 275.06V275.05Z" fill="#484848"/>
<path d="M351.72 276.39V277.55H348.43L346.12 275.06L351.72 276.4V276.39Z" fill="#484848"/>
<path d="M348.44 276.39V277.55L346.13 276.27V275.05L348.44 276.39Z" fill="#484848"/>
<path d="M348.71 275.39L347.13 274.48V273.74L348.71 272.83H351.46L353.04 273.74V274.48L351.46 275.39H348.71Z" fill="#484848"/>
<path d="M351.05 270.12V274.44L350.5 274.81L350.26 270.31L351.05 270.13V270.12Z" fill="#484848"/>
<path d="M350.51 270.43V274.81H349.66L349.11 270.12L350.51 270.42V270.43Z" fill="#484848"/>
<path d="M349.66 270.43V274.81L349.11 274.44V270.12L349.66 270.42V270.43Z" fill="#484848"/>
<path d="M349.11 269.64V270.13L349.66 270.43H350.51L351.06 270.13V269.64L350.51 269.28H349.66L349.11 269.64Z" fill="#484848"/>
<path d="M319.24 301.71V302.87L316.93 304.21L316.08 302.51L319.24 301.72V301.71Z" fill="#484848"/>
<path d="M316.92 303.05V304.21H313.63L311.38 301.72L316.92 303.06V303.05Z" fill="#484848"/>
<path d="M313.64 303.05V304.21L311.39 302.87V301.71L313.64 303.05Z" fill="#484848"/>
<path d="M313.92 302.05L312.39 301.14V300.39L313.92 299.48H316.66L318.24 300.4V301.13L316.66 302.05H313.92Z" fill="#484848"/>
<path d="M319.24 300.06V301.22L316.93 302.56L316.08 300.92L319.24 300.07V300.06Z" fill="#484848"/>
<path d="M316.92 301.4V302.56H313.63L311.38 300.06L316.92 301.4Z" fill="#484848"/>
<path d="M313.64 301.4V302.56L311.39 301.22V300.06L313.64 301.4Z" fill="#484848"/>
<path d="M313.92 300.4L312.39 299.5V298.75L313.92 297.84H316.66L318.24 298.75V299.49L316.66 300.4H313.92Z" fill="#484848"/>
<path d="M319.24 298.42V299.58L316.93 300.92L316.08 299.28L319.24 298.43V298.42Z" fill="#484848"/>
<path d="M316.92 299.76V300.92H313.63L311.38 298.43L316.92 299.77V299.76Z" fill="#484848"/>
<path d="M313.64 299.76V300.92L311.39 299.58V298.42L313.64 299.76Z" fill="#484848"/>
<path d="M313.92 298.76L312.39 297.85V297.1L313.92 296.2H316.66L318.24 297.11V297.84L316.66 298.76H313.92Z" fill="#484848"/>
<path d="M319.24 296.78V298L316.93 299.34L316.08 297.64L319.24 296.79V296.78Z" fill="#484848"/>
<path d="M316.92 298.12V299.34H313.63L311.38 296.78L316.92 298.12Z" fill="#484848"/>
<path d="M313.64 298.12V299.34L311.39 298V296.78L313.64 298.12Z" fill="#484848"/>
<path d="M313.92 297.12L312.39 296.21V295.46L313.92 294.55H316.66L318.24 295.47V296.2L316.66 297.12H313.92Z" fill="#484848"/>
<path d="M319.24 295.13V296.35L316.93 297.69L316.08 295.99L319.24 295.14V295.13Z" fill="#484848"/>
<path d="M316.92 296.47V297.69H313.63L311.38 295.13L316.92 296.47Z" fill="#484848"/>
<path d="M313.64 296.47V297.69L311.39 296.35V295.13L313.64 296.47Z" fill="#484848"/>
<path d="M313.92 295.47L312.39 294.57V293.83L313.9 292.97H316.67L318.24 293.84V294.56L316.66 295.47H313.92Z" fill="#484848"/>
<path d="M316.26 290.21V294.53L315.71 294.89L315.53 290.39L316.26 290.21Z" fill="#484848"/>
<path d="M315.71 290.51V294.89H314.86L314.31 290.2L315.71 290.5V290.51Z" fill="#484848"/>
<path d="M314.86 290.51V294.89L314.31 294.53V290.21L314.86 290.51Z" fill="#484848"/>
<path d="M314.31 289.72V290.21L314.86 290.51H315.71L316.26 290.21V289.72L315.71 289.36H314.86L314.31 289.72Z" fill="#484848"/>
<path d="M366.36 209.12L304.73 174.74L303.69 173.16L304.63 172.63L320.93 182.07L321.28 166.48L303.95 150.43L304.52 150.11L365.63 202.36V207.32H367.63L366.13 208.12L375.37 213.49V215.37L374.13 216.07L366.37 209.11L366.36 209.12ZM342.57 194.63L364.75 207.44L364.36 203.17L342.57 184.65V194.63ZM322.19 182.82L341.49 194L341.72 183.5L322.19 166.95V182.83V182.82Z" fill="#484848"/>
<path d="M303.2 175.35V174.61L320.26 184.46L340.64 196.2L363.61 209.48L372.93 214.9V215.63L303.2 175.35Z" fill="#484848"/>
<path d="M339.31 234.53L340.77 235.38L341.19 233.43L339.31 232.82V234.52V234.53Z" fill="#484848"/>
<path d="M373.63 214.69V216.45L340.78 235.38V233.68L373.63 214.69Z" fill="#484848"/>
<path d="M340.77 233.67L339.31 232.82L372.16 213.83L373.62 214.68L340.77 233.67Z" fill="#484848"/>
<path d="M329.64 228.99L331.16 229.84L331.53 227.89L329.64 227.22V228.98V228.99Z" fill="#484848"/>
<path d="M363.95 209.15L364.01 210.85L331.16 229.84V228.14L363.95 209.15Z" fill="#484848"/>
<path d="M331.16 228.14L329.64 227.23L362.49 208.3L363.95 209.15L331.16 228.14Z" fill="#484848"/>
<path d="M306.76 215.78L308.28 216.63L308.65 214.68L306.76 214.01V215.77V215.78Z" fill="#484848"/>
<path d="M341.14 195.95V197.65L308.29 216.64V214.88L341.14 195.96V195.95Z" fill="#484848"/>
<path d="M308.29 214.87L306.77 214.02L339.62 195.09L341.14 195.94L308.29 214.86V214.87Z" fill="#484848"/>
<path d="M306.76 203.55L308.28 204.4L308.65 202.45L306.76 201.84V203.54V203.55Z" fill="#484848"/>
<path d="M341.14 183.71V185.41L308.29 204.4V202.7L341.14 183.71Z" fill="#484848"/>
<path d="M308.29 202.7L306.77 201.85L339.62 182.86L341.14 183.71L308.29 202.7Z" fill="#484848"/>
<path d="M286.14 203.86L287.6 204.71L288.03 202.76L286.14 202.09V203.85V203.86Z" fill="#484848"/>
<path d="M320.45 184.02V185.72L287.6 204.71V202.95L320.45 184.02Z" fill="#484848"/>
<path d="M287.6 202.94L286.14 202.09L318.99 183.16L320.45 184.01L287.6 202.94Z" fill="#484848"/>
<path d="M286.14 186.39L287.6 187.24L288.03 185.29L286.14 184.62V186.38V186.39Z" fill="#484848"/>
<path d="M320.45 166.55V168.25L287.6 187.24V185.48L320.45 166.55Z" fill="#484848"/>
<path d="M287.6 185.48L286.14 184.63L318.99 165.64L320.45 166.55L287.6 185.48Z" fill="#484848"/>
<path d="M331.44 229.26L269.81 194.88L268.77 193.3L269.71 192.77L286.01 202.22L286.36 186.63L269.03 170.58L269.6 170.26L330.71 222.51V228.04L340.44 233.64V235.52L339.2 236.22L331.44 229.26ZM307.65 214.71L329.83 227.52L329.44 223.25L307.65 204.73V214.71ZM287.27 202.9L306.57 214.08L306.8 203.58L287.27 187.03V202.91V202.9Z" fill="#484848"/>
<path d="M268.28 195.49V194.76L285.34 204.6L305.72 216.35L328.69 229.63L338.01 235.04V235.78L268.28 195.49Z" fill="#484848"/>
<path d="M375.63 211.28V212.5L373.32 213.78L372.53 212.14L375.63 211.29V211.28Z" fill="#484848"/>
<path d="M373.32 212.62V213.78H370.1L367.79 211.29L373.33 212.63L373.32 212.62Z" fill="#484848"/>
<path d="M370.1 212.62V213.78L367.79 212.5V211.28L370.1 212.62Z" fill="#484848"/>
<path d="M370.37 211.62L368.79 210.7V209.97L370.37 209.06H373.05L374.63 209.97V210.7L373.05 211.62H370.37Z" fill="#484848"/>
<path d="M375.63 209.64V210.8L373.32 212.2L372.53 210.5L375.63 209.65V209.64Z" fill="#484848"/>
<path d="M373.32 210.98V212.2H370.1L367.79 209.64L373.33 210.98H373.32Z" fill="#484848"/>
<path d="M370.1 210.98V212.2L367.79 210.8V209.64L370.1 210.98Z" fill="#484848"/>
<path d="M370.37 209.98L368.79 209.06V208.33L370.37 207.41H373.05L374.63 208.33V209.06L373.05 209.98H370.37Z" fill="#484848"/>
<path d="M375.63 207.99V209.21L373.32 210.55L372.53 208.85L375.63 208V207.99Z" fill="#484848"/>
<path d="M373.32 209.33V210.55H370.1L367.79 207.99L373.33 209.33H373.32Z" fill="#484848"/>
<path d="M370.1 209.33V210.55L367.79 209.21V207.99L370.1 209.33Z" fill="#484848"/>
<path d="M370.37 208.33L368.79 207.42V206.7L370.36 205.83H373.06L374.63 206.7V207.42L373.05 208.33H370.37Z" fill="#484848"/>
<path d="M375.63 206.35V207.57L373.32 208.91L372.53 207.21L375.63 206.36V206.35Z" fill="#484848"/>
<path d="M373.32 207.69V208.91H370.1L367.79 206.35L373.33 207.69H373.32Z" fill="#484848"/>
<path d="M370.1 207.69V208.91L367.79 207.57V206.35L370.1 207.69Z" fill="#484848"/>
<path d="M370.37 206.69L368.79 205.77V205.1L370.37 204.19H373.05L374.63 205.1V205.77L373.05 206.69H370.37Z" fill="#484848"/>
<path d="M375.63 204.71V205.93L373.32 207.27L372.53 205.57L375.63 204.72V204.71Z" fill="#484848"/>
<path d="M373.32 206.05V207.27H370.1L367.79 204.71L373.33 206.05H373.32Z" fill="#484848"/>
<path d="M370.1 206.05V207.27L367.79 205.93V204.71L370.1 206.05Z" fill="#484848"/>
<path d="M370.37 205.05L368.79 204.13V203.46L370.37 202.54H373.05L374.63 203.46V204.13L373.05 205.05H370.37Z" fill="#484848"/>
<path d="M372.71 199.78V204.16L372.1 204.46L371.92 199.96L372.71 199.78Z" fill="#484848"/>
<path d="M372.1 200.08V204.46H371.31L370.7 199.78L372.1 200.08Z" fill="#484848"/>
<path d="M371.31 200.08V204.46L370.7 204.16V199.78L371.31 200.08Z" fill="#484848"/>
<path d="M370.71 199.29V199.78L371.32 200.08H372.11L372.72 199.78V199.29L372.11 198.99H371.32L370.71 199.29Z" fill="#484848"/>
<path d="M340.83 231.36V232.58L338.52 233.86L337.73 232.22L340.83 231.37V231.36Z" fill="#484848"/>
<path d="M338.52 232.7V233.86H335.3L332.99 231.37L338.53 232.71L338.52 232.7Z" fill="#484848"/>
<path d="M335.3 232.7V233.86L332.99 232.58V231.36L335.3 232.7Z" fill="#484848"/>
<path d="M335.57 231.7L333.99 230.79V230.05L335.57 229.14H338.25L339.83 230.05V230.79L338.25 231.7H335.57Z" fill="#484848"/>
<path d="M340.83 229.72V230.94L338.52 232.28L337.73 230.58L340.83 229.73V229.72Z" fill="#484848"/>
<path d="M338.52 231.06V232.28H335.3L332.99 229.72L338.53 231.06H338.52Z" fill="#484848"/>
<path d="M335.3 231.06V232.28L332.99 230.94V229.72L335.3 231.06Z" fill="#484848"/>
<path d="M335.57 230.06L333.99 229.14V228.41L335.57 227.49H338.25L339.83 228.41V229.14L338.25 230.06H335.57Z" fill="#484848"/>
<path d="M340.83 228.14V229.3L338.52 230.64L337.73 228.94L340.83 228.15V228.14Z" fill="#484848"/>
<path d="M338.52 229.41V230.63H335.3L332.99 228.14L338.53 229.42L338.52 229.41Z" fill="#484848"/>
<path d="M335.3 229.41V230.63L332.99 229.29V228.13L335.3 229.41Z" fill="#484848"/>
<path d="M335.56 228.42L333.99 227.55V226.83L335.57 225.91H338.25L339.83 226.83V227.55L338.26 228.42H335.56Z" fill="#484848"/>
<path d="M340.83 226.49V227.65L338.52 228.99L337.73 227.29L340.83 226.5V226.49Z" fill="#484848"/>
<path d="M338.52 227.77V228.99H335.3L332.99 226.49L338.53 227.77H338.52Z" fill="#484848"/>
<path d="M335.3 227.77V228.99L332.99 227.65V226.49L335.3 227.77Z" fill="#484848"/>
<path d="M335.56 226.77L333.99 225.9V225.18L335.57 224.27H338.25L339.83 225.18V225.9L338.26 226.77H335.56Z" fill="#484848"/>
<path d="M340.83 224.85V226.01L338.52 227.35L337.73 225.71L340.83 224.86V224.85Z" fill="#484848"/>
<path d="M338.52 226.19V227.35H335.3L332.99 224.86L338.53 226.2L338.52 226.19Z" fill="#484848"/>
<path d="M335.3 226.19V227.35L332.99 226.01V224.85L335.3 226.19Z" fill="#484848"/>
<path d="M335.57 225.19L333.99 224.27V223.54L335.57 222.63H338.25L339.83 223.54V224.27L338.25 225.19H335.57Z" fill="#484848"/>
<path d="M337.91 219.86V224.24L337.3 224.55L337.12 220.11L337.91 219.87V219.86Z" fill="#484848"/>
<path d="M337.31 220.16V224.54H336.52L335.91 219.85L337.31 220.15V220.16Z" fill="#484848"/>
<path d="M336.51 220.16V224.54L335.9 224.23V219.85L336.51 220.15V220.16Z" fill="#484848"/>
<path d="M335.91 219.37V219.86L336.52 220.16H337.31L337.92 219.86V219.37L337.31 219.07H336.52L335.91 219.37Z" fill="#484848"/>
<path d="M349.73 115.71L305.15 90.92L303.77 89.36L304.57 88.91L320.68 98.23L321.04 85.69L304.19 66.99L303.52 65.65L304.37 65.17L343.67 108.59V110.94H345.67L344.17 111.75L353.83 117.3V119.24L352.74 119.85L349.73 115.71ZM322.07 99.04L339.42 109.06L340.67 107.53L322.07 86.44V99.03V99.04Z" fill="#484848"/>
<path d="M303.2 91.62V90.88L320.05 100.62V100.58L341.71 113.09L351.45 118.69V119.49L303.2 91.62Z" fill="#484848"/>
<path d="M317.53 138.56L319.05 139.41L319.42 137.46L317.53 136.79V138.55V138.56Z" fill="#484848"/>
<path d="M351.91 118.72V120.42L319.06 139.41V137.71L351.91 118.72Z" fill="#484848"/>
<path d="M319.05 137.71L317.53 136.8L350.38 117.88L351.9 118.73L319.05 137.72V137.71Z" fill="#484848"/>
<path d="M307.98 133.02L309.44 133.87L309.87 131.92L307.98 131.31V133.01V133.02Z" fill="#484848"/>
<path d="M342.29 113.19V114.89L309.44 133.88V132.18L342.29 113.19Z" fill="#484848"/>
<path d="M309.44 132.17L307.98 131.32L340.83 112.33L342.29 113.18L309.44 132.17Z" fill="#484848"/>
<path d="M286.38 120.55L287.84 121.4L288.27 119.45L286.38 118.78V120.54V120.55Z" fill="#484848"/>
<path d="M320.7 100.71V102.41L287.85 121.4V119.64L320.7 100.71Z" fill="#484848"/>
<path d="M287.84 119.64L286.38 118.79L319.23 99.86L320.69 100.71L287.84 119.64Z" fill="#484848"/>
<path d="M286.38 105.64L287.84 106.55L288.27 104.54L286.38 103.93V105.63V105.64Z" fill="#484848"/>
<path d="M320.7 85.86V87.56L287.85 106.55V104.79L320.7 85.86Z" fill="#484848"/>
<path d="M287.84 104.79L286.38 103.94L319.23 84.95L320.69 85.86L287.84 104.79Z" fill="#484848"/>
<path d="M314.87 135.91L270.29 111.12L268.91 109.56L269.71 109.11L285.82 118.43L286.19 105.89L269.34 87.19L268.67 85.85L269.52 85.37L308.82 128.79V131.14H310.82L309.32 131.95L318.98 137.5V139.44L317.89 140.05L314.88 135.91H314.87ZM287.21 119.24L304.56 129.26L305.81 127.73L287.21 106.64V119.23V119.24Z" fill="#484848"/>
<path d="M268.28 111.82V111.09L285.13 120.82V120.79L306.79 133.3L316.53 138.9V139.69L268.28 111.82Z" fill="#484848"/>
<path d="M354.34 115.32V116.54L352.03 117.88L351.24 116.18L354.34 115.33V115.32Z" fill="#484848"/>
<path d="M352.03 116.66V117.88H348.81L346.5 115.32L352.04 116.66H352.03Z" fill="#484848"/>
<path d="M348.8 116.66V117.88L346.49 116.54V115.32L348.8 116.66Z" fill="#484848"/>
<path d="M349.07 115.66L347.49 114.74V114.02L349.06 113.15H351.77L353.34 114.02V114.74L351.76 115.66H349.07Z" fill="#484848"/>
<path d="M354.34 113.73V114.89L352.03 116.23L351.24 114.53L354.34 113.74V113.73Z" fill="#484848"/>
<path d="M352.03 115.01V116.23H348.81L346.5 113.73L352.04 115.01H352.03Z" fill="#484848"/>
<path d="M348.8 115.01V116.23L346.49 114.89V113.73L348.8 115.01Z" fill="#484848"/>
<path d="M349.06 114.01L347.49 113.15V112.38L349.06 111.51H351.77L353.34 112.38V113.15L351.77 114.01H349.06Z" fill="#484848"/>
<path d="M354.34 112.09V113.25L352.03 114.59L351.24 112.89L354.34 112.1V112.09Z" fill="#484848"/>
<path d="M352.03 113.43V114.59H348.81L346.5 112.1L352.04 113.44L352.03 113.43Z" fill="#484848"/>
<path d="M348.8 113.43V114.59L346.49 113.25V112.09L348.8 113.43Z" fill="#484848"/>
<path d="M349.07 112.43L347.49 111.52V110.78L349.07 109.87H351.76L353.34 110.78V111.52L351.76 112.43H349.07Z" fill="#484848"/>
<path d="M354.34 110.45V111.61L352.03 112.95L351.24 111.31L354.34 110.46V110.45Z" fill="#484848"/>
<path d="M352.03 111.79V112.95H348.81L346.5 110.45L352.04 111.79H352.03Z" fill="#484848"/>
<path d="M348.8 111.79V112.95L346.49 111.61V110.45L348.8 111.79Z" fill="#484848"/>
<path d="M349.07 110.79L347.49 109.87V109.14L349.07 108.22H351.76L353.34 109.14V109.87L351.76 110.79H349.07Z" fill="#484848"/>
<path d="M354.34 108.81V110.03L352.03 111.31L351.24 109.67L354.34 108.82V108.81Z" fill="#484848"/>
<path d="M352.03 110.14V111.3H348.81L346.5 108.8L352.04 110.14H352.03Z" fill="#484848"/>
<path d="M348.8 110.14V111.3L346.49 110.02V108.8L348.8 110.14Z" fill="#484848"/>
<path d="M349.07 109.14L347.49 108.23V107.5L349.07 106.58H351.76L353.34 107.5V108.23L351.76 109.14H349.07Z" fill="#484848"/>
<path d="M351.42 103.82V108.2L350.87 108.51L350.63 104.07L351.42 103.83V103.82Z" fill="#484848"/>
<path d="M350.87 104.18V108.5H350.02L349.41 103.81L350.87 104.17V104.18Z" fill="#484848"/>
<path d="M350.02 104.18V108.5L349.41 108.19V103.81L350.02 104.17V104.18Z" fill="#484848"/>
<path d="M349.41 103.39V103.82L350.02 104.18H350.87L351.42 103.82V103.39L350.87 103.03H350.02L349.41 103.39Z" fill="#484848"/>
<path d="M319.6 135.4V136.62L317.29 137.96L316.44 136.26L319.6 135.41V135.4Z" fill="#484848"/>
<path d="M317.29 136.74V137.96H314.01L311.7 135.47L317.3 136.75L317.29 136.74Z" fill="#484848"/>
<path d="M314 136.74V137.96L311.69 136.62V135.46L314 136.74Z" fill="#484848"/>
<path d="M314.26 135.74L312.69 134.87V134.15L314.27 133.23H317.02L318.6 134.15V134.87L317.03 135.74H314.26Z" fill="#484848"/>
<path d="M319.6 133.82V134.98L317.29 136.32L316.44 134.68L319.6 133.83V133.82Z" fill="#484848"/>
<path d="M317.29 135.15V136.31H314.01L311.7 133.82L317.3 135.16L317.29 135.15Z" fill="#484848"/>
<path d="M314 135.15V136.31L311.69 134.97V133.81L314 135.15Z" fill="#484848"/>
<path d="M314.27 134.15L312.69 133.24V132.51L314.27 131.59H317.02L318.6 132.51V133.24L317.02 134.15H314.27Z" fill="#484848"/>
<path d="M319.6 132.17V133.33L317.29 134.67L316.44 133.03L319.6 132.18V132.17Z" fill="#484848"/>
<path d="M317.29 133.51V134.67H314.01L311.7 132.17L317.3 133.51H317.29Z" fill="#484848"/>
<path d="M314 133.51V134.67L311.69 133.33V132.17L314 133.51Z" fill="#484848"/>
<path d="M314.27 132.51L312.69 131.6V130.86L314.27 129.95H317.02L318.6 130.86V131.6L317.02 132.51H314.27Z" fill="#484848"/>
<path d="M319.6 130.53V131.69L317.29 133.03L316.44 131.39L319.6 130.54V130.53Z" fill="#484848"/>
<path d="M317.29 131.87V133.03H314.01L311.7 130.54L317.3 131.88L317.29 131.87Z" fill="#484848"/>
<path d="M314 131.87V133.03L311.69 131.69V130.53L314 131.87Z" fill="#484848"/>
<path d="M314.27 130.87L312.69 129.95V129.22L314.27 128.3H317.02L318.6 129.22V129.95L317.02 130.87H314.27Z" fill="#484848"/>
<path d="M319.6 128.89V130.11L317.29 131.45L316.44 129.75L319.6 128.9V128.89Z" fill="#484848"/>
<path d="M317.29 130.23V131.45H314.01L311.7 128.89L317.3 130.23H317.29Z" fill="#484848"/>
<path d="M314 130.23V131.45L311.69 130.11V128.89L314 130.23Z" fill="#484848"/>
<path d="M314.27 129.23L312.69 128.31V127.58L314.27 126.66H317.02L318.6 127.58V128.31L317.02 129.23H314.27Z" fill="#484848"/>
<path d="M316.62 123.9V128.28L316.07 128.65L315.83 124.15L316.62 123.91V123.9Z" fill="#484848"/>
<path d="M316.07 124.26V128.64H315.22L314.67 123.89L316.07 124.25V124.26Z" fill="#484848"/>
<path d="M315.22 124.26V128.64L314.67 128.27V123.89L315.22 124.25V124.26Z" fill="#484848"/>
<path d="M314.67 123.47V123.9L315.22 124.26H316.07L316.62 123.9V123.47L316.07 123.11H315.22L314.67 123.47Z" fill="#484848"/>
<path d="M350.19 104.15L349.86 103.83V103.38L350.19 103.05H350.64L350.97 103.38V103.83L350.64 104.15H350.19Z" fill="#484848"/>
<path d="M315.39 124.24L315.07 123.91V123.46L315.39 123.13H315.86L316.23 123.48V123.89L315.86 124.24H315.39Z" fill="#484848"/>
<path d="M351.35 103.31L377.95 99.18L403.78 86.41L403.92 86.69L378.01 99.5L351.4 103.59L351.35 103.31Z" fill="#484848"/>
<path d="M262.03 168.29L289.28 150.05L314.81 124.33L315.01 124.52L289.52 150.32L262.21 168.57L262.03 168.29Z" fill="#484848"/>
<path d="M371.44 199.94L371.16 199.63V199.14L371.44 198.83H371.93L372.26 199.16V199.61L371.93 199.94H371.44Z" fill="#484848"/>
<path d="M336.69 220.02L336.36 219.69V219.24L336.69 218.91H337.13L337.46 219.24V219.69L337.13 220.02H336.69Z" fill="#484848"/>
<path d="M372.7 199.1L399.06 195.09L425.13 182.19L425.27 182.47L399.18 195.41L372.76 199.43L372.7 199.1Z" fill="#484848"/>
<path d="M283.34 264.13L309.71 246.68L336.15 220.12L336.38 220.35L309.9 246.89L283.49 264.36L283.34 264.13Z" fill="#484848"/>
<path d="M349.89 269.85L349.56 269.53V269.08L349.89 268.75H350.4L350.72 269.08V269.53L350.4 269.85H349.89Z" fill="#484848"/>
<path d="M315.13 289.94L314.82 289.65V289.16L315.15 288.83H315.6L315.92 289.16V289.65L315.62 289.94H315.13Z" fill="#484848"/>
<path d="M351.1 269.07L378.68 264.64L403.54 252.18L403.68 252.46L378.86 264.93L378.76 264.94L351.16 269.4L351.1 269.07Z" fill="#484848"/>
<path d="M261.73 334.06L288.79 316.05L314.55 290.1L314.78 290.33L289.01 316.28L288.93 316.33L261.91 334.33L261.73 334.06Z" fill="#484848"/>
</g>
<defs>
<clipPath id="clip0_55_711">
<rect width="426" height="515" fill="white"/>
</clipPath>
</defs>
</svg>
